<?xml version="1.0" encoding="UTF-8"?>
<svg version="1.1" xmlns="http://www.w3.org/2000/svg" width="1000" height="1000">
<path d="M0 0 C330 0 660 0 1000 0 C1000 330 1000 660 1000 1000 C670 1000 340 1000 0 1000 C0 670 0 340 0 0 Z " fill="#FEFEFE" transform="translate(0,0)"/>
<path d="M0 0 C12.69314226 10.97427925 19.09664991 23.55874813 20.59375 40.34765625 C21.13539053 54.34003654 16.11991131 67.80439809 6.9375 78.26953125 C5.43642862 79.830446 3.9171452 81.37418316 2.375 82.89453125 C1.52808594 83.75691406 1.52808594 83.75691406 0.6640625 84.63671875 C-10.37220786 95.02696353 -24.22650656 97.42296859 -38.83984375 97.21484375 C-44.79467712 96.71092596 -50.08519821 95.0741254 -55.625 92.89453125 C-56.36234375 92.60578125 -57.0996875 92.31703125 -57.859375 92.01953125 C-69.3891922 86.85417314 -79.42061626 76.86131696 -84.26171875 65.1875 C-89.86095867 49.86579764 -90.6367038 34.94020529 -84.2890625 19.68359375 C-76.53616483 3.76178926 -64.41181184 -4.96242609 -48.1328125 -11.03515625 C-31.2379886 -15.68920208 -13.35057722 -10.70827548 0 0 Z " fill="#1FBCB4" transform="translate(534.625,379.10546875)"/>
<path d="M0 0 C1.11890625 0.25007813 2.2378125 0.50015625 3.390625 0.7578125 C10.21490717 2.45413407 16.58310471 5.1565345 23 8 C23.87140625 8.38027344 24.7428125 8.76054687 25.640625 9.15234375 C28.4451192 10.3992521 31.22469631 11.68934045 34 13 C34.88147705 13.41523926 34.88147705 13.41523926 35.78076172 13.83886719 C50.92000978 21.02583381 64.82361069 29.63780417 78 40 C78.94230469 40.73734375 79.88460937 41.4746875 80.85546875 42.234375 C88.0343719 47.91119885 88.0343719 47.91119885 91 51 C89.92340197 54.22979408 89.40540675 54.73709102 86.81640625 56.71484375 C86.14520752 57.23022705 85.47400879 57.74561035 84.7824707 58.27661133 C84.04988037 58.82470459 83.31729004 59.37279785 82.5625 59.9375 C81.80477295 60.50944092 81.0470459 61.08138184 80.26635742 61.6706543 C62.9027032 74.64120229 44.95989571 85.6467238 25.00830078 94.13330078 C23.32444947 94.85998108 21.65788947 95.62655095 19.99609375 96.40234375 C13.32698731 99.44081583 6.44041975 101.37327411 -0.625 103.25 C-2.07459106 103.63792725 -2.07459106 103.63792725 -3.5534668 104.03369141 C-34.16117819 111.86521131 -66.09794601 107.15976201 -94 93 C-95.25636058 92.38901472 -96.51286719 91.77832959 -97.76953125 91.16796875 C-107.69489321 86.22107573 -116.74925684 80.01000319 -125.76123047 73.57666016 C-127.84854511 72.10666256 -129.96424181 70.69480703 -132.09765625 69.29296875 C-140.62702731 63.51327135 -140.62702731 63.51327135 -141.61328125 59.51171875 C-141.5 57 -141.5 57 -141.125 54.52734375 C-140.92315841 50.4463592 -142.91061566 47.58246234 -144.90625 44.12890625 C-146 42 -146 42 -146 39 C-133.23906564 27.09935335 -115.68314538 18.35901437 -100 11 C-98.61167969 10.31357422 -98.61167969 10.31357422 -97.1953125 9.61328125 C-66.61263322 -5.12031956 -32.85778698 -7.57258041 0 0 Z M-77.26171875 15.546875 C-87.84280062 28.16888406 -91.06562272 42.88245629 -90 59 C-87.70826196 74.03953086 -80.1700846 86.36397613 -68.3125 95.8125 C-54.75384633 105.5341235 -39.74728741 107.57360275 -23.5 105.5 C-8.83414383 102.33549234 3.41971049 92.48807927 11.4375 80.0625 C19.13591833 66.11189799 20.62652869 51.86995117 17.03125 36.5234375 C12.73631433 21.84907398 3.08796111 10.72911089 -10 3 C-33.64739883 -7.8767212 -59.37172538 -4.05810259 -77.26171875 15.546875 Z " fill="#FBFEFE" transform="translate(536,370)"/>
<path d="M0 0 C3.44042434 2.81192882 6.7327606 5.7671995 9.97216797 8.80908203 C11.94773713 10.68478471 11.94773713 10.68478471 14.85498047 12.51611328 C13.90187758 20.14093639 3.18681317 26.35088494 -2.57250977 30.84326172 C-16.76171645 41.66526667 -32.05038826 50.98802431 -48.19848633 58.5769043 C-49.63057121 59.26789019 -51.04963835 59.98601912 -52.46069336 60.71899414 C-84.23743333 77.17752466 -124.52692898 80.937143 -158.74316406 70.61743164 C-184.49690272 62.40197244 -208.18792379 47.57323936 -228.93017578 30.42236328 C-235.61107146 24.90625298 -241.2489373 21.11667644 -249.59814453 18.41845703 C-252.14501953 17.51611328 -252.14501953 17.51611328 -254.14501953 15.51611328 C-253.550828 9.46278708 -247.76943474 5.69783826 -243.40820312 2.07226562 C-216.21834075 -19.93990092 -183.03717655 -39.56441905 -148.14501953 -45.48388672 C-146.62618164 -45.74335083 -146.62618164 -45.74335083 -145.07666016 -46.00805664 C-91.18671677 -54.49762026 -41.58267099 -33.13315408 0 0 Z M-194.14501953 -21.48388672 C-194.82483887 -21.11859863 -195.5046582 -20.75331055 -196.20507812 -20.37695312 C-208.54791367 -13.69911052 -220.21180869 -6.31880457 -231.14501953 2.51611328 C-230.71189453 3.26634766 -230.27876953 4.01658203 -229.83251953 4.78955078 C-228.99720703 6.32482422 -228.99720703 6.32482422 -228.14501953 7.89111328 C-227.30970703 9.38771484 -227.30970703 9.38771484 -226.45751953 10.91455078 C-225.16635511 14.45756743 -225.13850755 15.90926784 -225.42236328 19.52783203 C-225.50547549 22.45051974 -225.54495864 23.95330237 -223.83691406 26.35693359 C-221.88236546 28.07407271 -219.87681539 29.51726369 -217.70751953 30.95361328 C-216.93762695 31.49872559 -216.16773438 32.04383789 -215.37451172 32.60546875 C-212.98732778 34.27844226 -210.57048559 35.89930168 -208.14501953 37.51611328 C-206.75248855 38.47747871 -205.36053341 39.43967893 -203.96923828 40.40283203 C-188.26540805 51.07819363 -171.41182734 60.17364704 -153.14501953 65.51611328 C-152.48099121 65.72349121 -151.81696289 65.93086914 -151.1328125 66.14453125 C-128.96604287 72.91280631 -103.11661381 71.16101794 -81.14501953 64.51611328 C-79.93458984 64.17773438 -79.93458984 64.17773438 -78.69970703 63.83251953 C-46.44551257 54.65407513 -19.0413664 36.21744832 6.85498047 15.51611328 C-2.21085631 -5.42240044 -41.73139215 -21.66195645 -61.95751953 -29.73388672 C-64.34946788 -30.66100798 -66.74727773 -31.57176171 -69.14501953 -32.48388672 C-70.02931641 -32.85255859 -70.91361328 -33.22123047 -71.82470703 -33.60107422 C-80.23191733 -36.97967275 -89.11655878 -38.4831354 -97.99902344 -40.09155273 C-99.67106449 -40.3972376 -101.33724242 -40.73505269 -103.00048828 -41.08544922 C-134.72957284 -45.10578043 -166.38883172 -36.45557036 -194.14501953 -21.48388672 Z " fill="#21BDB4" transform="translate(620.14501953125,407.48388671875)"/>
<path d="M0 0 C6.39999365 5.34134808 11.86517549 11.89752137 12.79931641 20.44604492 C13.2659092 29.32222819 13.59160843 37.74446142 8.578125 45.421875 C8.23910156 46.040625 7.90007812 46.659375 7.55078125 47.296875 C3.25903575 54.38360067 -4.6174038 58.31437908 -12.421875 60.421875 C-21.71958297 61.25827969 -30.10589475 61.09672104 -38.421875 56.421875 C-39.06511719 56.08285156 -39.70835937 55.74382813 -40.37109375 55.39453125 C-47.40419191 51.10754517 -51.32558867 43.17149462 -53.421875 35.421875 C-54.55303035 24.61064021 -54.03849889 15.51621337 -47.421875 6.421875 C-35.40915528 -7.17276666 -15.44847328 -10.06642452 0 0 Z " fill="#151515" transform="translate(261.421875,528.578125)"/>
<path d="M0 0 C6.91489755 6.48689615 10.62151583 13.16762099 11.23828125 22.671875 C11.45033053 30.53305024 11.29779531 37.16324311 7 44 C6.66097656 44.62132812 6.32195313 45.24265625 5.97265625 45.8828125 C2.07203894 52.29592709 -4.40576653 55.77687525 -11.36328125 58.14453125 C-21.23528316 60.46673149 -31.08427067 59.94595204 -40 55 C-40.96679688 54.4740625 -40.96679688 54.4740625 -41.953125 53.9375 C-48.7571057 49.67761643 -52.97059958 42.64927851 -55 35 C-56.38881555 24.10137457 -55.72606265 14.07236357 -49 5 C-35.85009575 -9.30340462 -15.87402815 -11.31416369 0 0 Z " fill="#141414" transform="translate(540,530)"/>
<path d="M0 0 C38.86444805 0 38.86444805 0 48.27734375 8.9296875 C55.88948774 18.07806916 56.99517131 28.57691618 56 40 C54.39213623 47.76280727 49.94211158 53.8571813 44 59 C30.62532519 67.23954661 15.3207923 65 0 65 C0 43.55 0 22.1 0 0 Z " fill="#151515" transform="translate(645,524)"/>
<path d="M0 0 C0 4.62 0 9.24 0 14 C-10.56 14 -21.12 14 -32 14 C-32.33 15.32 -32.66 16.64 -33 18 C-27.67433858 21.73128461 -21.58079352 22.98264492 -15.39257812 24.66210938 C-8.72131853 26.55604749 -3.99182891 28.43158903 0.375 34.0625 C2.81354701 38.8572802 2.83583933 43.76659157 2 49 C0.15669459 54.47433919 -2.8937805 57.26729556 -7.9375 59.9375 C-15.09253349 63.2825632 -22.19402499 63.15595326 -29.9375 63.125 C-30.90107422 63.12886719 -31.86464844 63.13273438 -32.85742188 63.13671875 C-46.88245423 63.11754577 -46.88245423 63.11754577 -49 61 C-49.07313567 58.46950598 -49.09247527 55.96695163 -49.0625 53.4375 C-49.05798828 52.72658203 -49.05347656 52.01566406 -49.04882812 51.28320312 C-49.03700864 49.52209987 -49.01907263 47.76103964 -49 46 C-48.07316406 46.16242187 -47.14632813 46.32484375 -46.19140625 46.4921875 C-41.11746263 47.21466601 -36.05302486 47.14553053 -30.9375 47.125 C-29.48633789 47.13080078 -29.48633789 47.13080078 -28.00585938 47.13671875 C-23.22519065 47.13017437 -18.69958765 46.99856331 -14 46 C-14.21057107 44.05448253 -14.21057107 44.05448253 -15 42 C-19.39338099 38.90063146 -24.89588214 37.72957865 -30.0625 36.5625 C-37.20112561 34.85504247 -42.57881413 32.3971724 -47 26.375 C-49.75860969 21.43755621 -49.90380902 16.50732222 -49 11 C-46.32857915 5.4516644 -42.00468945 1.50234472 -36.5 -1.25 C-24.96553641 -4.71033908 -11.16309121 -4.3211966 0 0 Z " fill="#151515" transform="translate(476,526)"/>
<path d="M0 0 C0 4.62 0 9.24 0 14 C-10.56 14 -21.12 14 -32 14 C-32.33 15.32 -32.66 16.64 -33 18 C-27.67433858 21.73128461 -21.58079352 22.98264492 -15.39257812 24.66210938 C-8.90503418 26.50389151 -4.34637537 28.53013119 0.375 33.5 C3.05424567 39.27068298 3.2067756 45.30690281 1.22265625 51.37890625 C-1.879306 57.19646534 -6.91917586 59.86942553 -13 62 C-18.59252012 63.31930371 -24.22514712 63.14783419 -29.9375 63.125 C-30.90107422 63.12886719 -31.86464844 63.13273438 -32.85742188 63.13671875 C-46.88245423 63.11754577 -46.88245423 63.11754577 -49 61 C-49.07313567 58.46950598 -49.09247527 55.96695163 -49.0625 53.4375 C-49.05798828 52.72658203 -49.05347656 52.01566406 -49.04882812 51.28320312 C-49.03700864 49.52209987 -49.01907263 47.76103964 -49 46 C-48.07316406 46.16242187 -47.14632812 46.32484375 -46.19140625 46.4921875 C-41.11746263 47.21466601 -36.05302486 47.14553053 -30.9375 47.125 C-29.48633789 47.13080078 -29.48633789 47.13080078 -28.00585938 47.13671875 C-23.22519065 47.13017437 -18.69958765 46.99856331 -14 46 C-14 44.35 -14 42.7 -14 41 C-19.34341563 39.33313804 -24.65990054 37.84178423 -30.125 36.625 C-37.20506234 34.85271225 -42.60491482 32.3616202 -47 26.375 C-49.75860969 21.43755621 -49.90380902 16.50732222 -49 11 C-46.32857915 5.4516644 -42.00468945 1.50234472 -36.5 -1.25 C-24.96553641 -4.71033908 -11.16309121 -4.3211966 0 0 Z " fill="#151515" transform="translate(199,526)"/>
<path d="M0 0 C5.28 0 10.56 0 16 0 C16.0093457 1.24088379 16.01869141 2.48176758 16.02832031 3.76025391 C16.06829283 8.37877866 16.13407207 12.99664238 16.20751953 17.61474609 C16.23568703 19.61075325 16.25692252 21.60687106 16.27099609 23.60302734 C16.29248403 26.47811364 16.33916426 29.35187529 16.390625 32.2265625 C16.39185364 33.11429352 16.39308228 34.00202454 16.39434814 34.91665649 C16.52630883 40.54089113 17.32187609 43.67902196 21 48 C24.95647388 49.97823694 29.6982418 49.56487734 34 49 C37.41311667 46.47429367 38.66637768 45.00086696 40 41 C40.11265547 39.63484686 40.17582586 38.26522788 40.20532227 36.89575195 C40.22526749 36.07512772 40.24521271 35.25450348 40.26576233 34.40901184 C40.28247482 33.52767075 40.29918732 32.64632965 40.31640625 31.73828125 C40.33718735 30.83248825 40.35796844 29.92669525 40.37937927 28.99345398 C40.44476558 26.09987984 40.50370904 23.20621493 40.5625 20.3125 C40.6056956 18.35090207 40.64931023 16.38931332 40.69335938 14.42773438 C40.80043582 9.61858261 40.90173414 4.80933954 41 0 C46.28 0 51.56 0 57 0 C57.09967465 5.77997948 57.17184583 11.55944688 57.21972656 17.34008789 C57.23970918 19.30209074 57.26690484 21.26403505 57.30175781 23.22583008 C57.51379014 35.47693347 57.60313964 45.68913117 50.875 56.375 C43.33650494 63.25797375 34.78053011 65.49537205 24.78515625 65.40234375 C17.09023009 64.58441042 10.35989128 61.22256941 5.4375 55.1875 C0.49658639 48.21480883 -0.44035938 40.23650338 -0.29296875 31.93359375 C-0.28872391 31.01409439 -0.28447906 30.09459503 -0.28010559 29.14723206 C-0.26346776 26.24367541 -0.22584467 23.34084274 -0.1875 20.4375 C-0.17243386 18.45508823 -0.15874886 16.47266546 -0.14648438 14.49023438 C-0.11361326 9.65988222 -0.06193611 4.83006336 0 0 Z " fill="#161616" transform="translate(283,524)"/>
<path d="M0 0 C1.4264011 0.64603969 2.85354479 1.29044121 4.28125 1.93359375 C25.61633286 11.64487263 45.55825546 24.2842919 63 40 C62.67 41.32 62.34 42.64 62 44 C57.63942238 43.48290496 55.55774754 42.087842 52.3125 39.1875 C33.72435131 23.43781185 11.69439556 11.49683552 -11.1015625 3.08203125 C-13.71182886 2.10757871 -16.253925 1.03828227 -18.8125 -0.0625 C-35.31433316 -6.65789287 -53.01031766 -8.35526703 -70.625 -8.25 C-71.92695313 -8.25773437 -73.22890625 -8.26546875 -74.5703125 -8.2734375 C-82.89787215 -8.25678238 -90.81830175 -7.53863097 -99 -6 C-99.74314453 -5.86464844 -100.48628906 -5.72929687 -101.25195312 -5.58984375 C-119.1047237 -2.14363729 -136.2784838 4.48593029 -152.26074219 13.07373047 C-153.87087409 13.93123194 -155.50116707 14.75058353 -157.1328125 15.56640625 C-171.32060024 22.80544373 -185.05320865 31.93331049 -197.0390625 42.42578125 C-199 44 -199 44 -202 45 C-202.99 44.01 -203.98 43.02 -205 42 C-197.62642185 23.33163451 -160.38873491 8.0470784 -143.51171875 0.51171875 C-142.35285156 0.01285156 -141.19398438 -0.48601562 -140 -1 C-138.85144531 -1.50917969 -137.70289063 -2.01835937 -136.51953125 -2.54296875 C-92.56530713 -21.18876284 -43.21672378 -20.5069648 0 0 Z " fill="#23BFB7" transform="translate(571,355)"/>
<path d="M0 0 C5.28 0 10.56 0 16 0 C16.01417969 1.38574219 16.02835938 2.77148438 16.04296875 4.19921875 C16.08987798 6.02867878 16.13812532 7.85810485 16.1875 9.6875 C16.19330078 10.59951172 16.19910156 11.51152344 16.20507812 12.45117188 C16.35199326 16.94024549 16.54823771 19.3532324 19.171875 23.109375 C22.43987077 25.29405725 24.16253506 25.6463172 28.0625 25.5625 C29.59583984 25.56443359 29.59583984 25.56443359 31.16015625 25.56640625 C34.64773949 24.87080849 35.82646618 23.76585943 38 21 C38.88639389 18.34081834 39.17989025 16.51935359 39.31640625 13.76953125 C39.37924805 12.56586914 39.37924805 12.56586914 39.44335938 11.33789062 C39.48267578 10.50451172 39.52199219 9.67113281 39.5625 8.8125 C39.62727539 7.5450293 39.62727539 7.5450293 39.69335938 6.25195312 C39.79931518 4.16815567 39.9001502 2.08409897 40 0 C45.28 0 50.56 0 56 0 C56.86794846 24.83296988 56.86794846 24.83296988 48.8125 33.9375 C44.96270572 37.90425005 41.94163858 38.01945381 36 40 C36 48.25 36 56.5 36 65 C30.72 65 25.44 65 20 65 C20 56.75 20 48.5 20 40 C18.02 39.67 16.04 39.34 14 39 C7.45186866 36.11506508 4.01663251 30.22560066 1 24 C0.08666173 21.01443454 -0.11762682 18.34978366 -0.09765625 15.234375 C-0.09443359 14.34492187 -0.09121094 13.45546875 -0.08789062 12.5390625 C-0.07532227 11.15847656 -0.07532227 11.15847656 -0.0625 9.75 C-0.05798828 8.81414063 -0.05347656 7.87828125 -0.04882812 6.9140625 C-0.03706938 4.60934753 -0.01913468 2.30466554 0 0 Z " fill="#141414" transform="translate(794,524)"/>
<path d="M0 0 C17.49 0 34.98 0 53 0 C53 4.62 53 9.24 53 14 C47.06 14 41.12 14 35 14 C35 30.83 35 47.66 35 65 C29.72 65 24.44 65 19 65 C19 48.17 19 31.34 19 14 C12.73 14 6.46 14 0 14 C0 9.38 0 4.76 0 0 Z " fill="#151515" transform="translate(735,524)"/>
<path d="M0 0 C5.28 0 10.56 0 16 0 C16 16.5 16 33 16 50 C26.56 50 37.12 50 48 50 C48 54.95 48 59.9 48 65 C32.16 65 16.32 65 0 65 C0 43.55 0 22.1 0 0 Z " fill="#161616" transform="translate(561,524)"/>
<path d="M0 0 C5.28 0 10.56 0 16 0 C16 16.5 16 33 16 50 C26.56 50 37.12 50 48 50 C48 54.95 48 59.9 48 65 C32.16 65 16.32 65 0 65 C0 43.55 0 22.1 0 0 Z " fill="#191919" transform="translate(351,524)"/>
<path d="M0 0 C2.64 0.33 5.28 0.66 8 1 C6.55993623 9.94129144 3.79194029 18.41105391 1 27 C2.98 26.67 4.96 26.34 7 26 C7.37125 24.205625 7.37125 24.205625 7.75 22.375 C9.19428162 15.83386947 11.11716915 9.42538877 13 3 C17.08072342 3.55144911 17.91330796 3.91330796 21 7 C17.37 12.94 13.74 18.88 10 25 C11.32 25.33 12.64 25.66 14 26 C19.445 17.585 19.445 17.585 25 9 C27 10 29 11 31 12 C30.57104628 16.40462233 27.58580579 18.78712405 24.5625 21.6875 C24.05912109 22.18572266 23.55574219 22.68394531 23.03710938 23.19726562 C19.31037621 26.84481189 19.31037621 26.84481189 17 28 C17.66 29.32 18.32 30.64 19 32 C24.22325977 27.53648711 29.20922972 22.9255107 34 18 C36.46800047 19.15173355 38.04783565 20.04783565 40 22 C39.84106445 23.9934082 39.84106445 23.9934082 39 26 C37.48120117 27.17260742 37.48120117 27.17260742 35.54296875 28.10546875 C34.84236328 28.44900391 34.14175781 28.79253906 33.41992188 29.14648438 C32.68322266 29.49001953 31.94652344 29.83355469 31.1875 30.1875 C30.09985352 30.72020508 30.09985352 30.72020508 28.99023438 31.26367188 C25.67664046 32.86135165 22.60256305 34.1944859 19 35 C19 36.98 19 38.96 19 41 C21.563004 39.56339259 24.1254156 38.12574581 26.6875 36.6875 C27.7693457 36.08131836 27.7693457 36.08131836 28.87304688 35.46289062 C29.57880859 35.06650391 30.28457031 34.67011719 31.01171875 34.26171875 C32.04365356 33.68296997 32.04365356 33.68296997 33.09643555 33.0925293 C34.71317794 32.16461828 36.29810872 31.18162711 37.875 30.1875 C40 29 40 29 42.3125 29.3125 C42.869375 29.539375 43.42625 29.76625 44 30 C44.495 33.465 44.495 33.465 45 37 C40.37023535 38.56922311 35.78811056 39.92277587 30.94921875 40.65625 C29.89444336 40.82193481 29.89444336 40.82193481 28.81835938 40.9909668 C27.42300852 41.20151642 26.02433145 41.39131793 24.62304688 41.55786133 C20.76999909 42.15031005 18.62394706 43.00740048 16.20703125 45.98046875 C15.47871094 46.97691406 14.75039063 47.97335937 14 49 C10.27420911 51.48386059 8.41288598 51.3804212 4 51 C-0.10219771 49.18740101 -2.76415359 46.89202893 -5 43 C-5.55884624 39.57353872 -5.72297631 36.40224144 -5 33 C-4.34161133 32.25983643 -3.68322266 31.51967285 -3.00488281 30.75708008 C-0.55699361 27.39078529 -0.46596297 25.51147255 -0.390625 21.38671875 C-0.35839844 20.13955078 -0.32617188 18.89238281 -0.29296875 17.60742188 C-0.27169922 15.66706055 -0.27169922 15.66706055 -0.25 13.6875 C-0.22035156 12.37458984 -0.19070313 11.06167969 -0.16015625 9.70898438 C-0.08954411 6.47259465 -0.03680123 3.23692189 0 0 Z " fill="#F7FDFC" transform="translate(503,372)"/>
<path d="M0 0 C5.28 0 10.56 0 16 0 C16 21.45 16 42.9 16 65 C10.72 65 5.44 65 0 65 C0 43.55 0 22.1 0 0 Z " fill="#151515" transform="translate(711,524)"/>
<path d="M0 0 C5.28 0 10.56 0 16 0 C16 21.45 16 42.9 16 65 C10.72 65 5.44 65 0 65 C0 43.55 0 22.1 0 0 Z " fill="#171717" transform="translate(617,524)"/>
<path d="M0 0 C3.7048911 2.10670278 7.31608929 4.3536787 8.80078125 8.54296875 C9.92649039 15.14940317 10.32264173 22.28026076 7.5625 28.4375 C2.51063322 33.48936678 -0.59008802 35.08442383 -7.8125 35.3125 C-13.27080319 35.13438695 -16.85169925 34.87753235 -20.8125 30.8125 C-25.37914957 25.28445052 -25.41607061 20.11783043 -25.19921875 13.06640625 C-24.54086391 7.52691551 -22.23553546 5.06612648 -18.1875 1.5 C-12.56988879 -2.49146059 -6.43279477 -2.00365739 0 0 Z " fill="#FBFBFB" transform="translate(248.8125,539.1875)"/>
<path d="M0 0 C3.14394454 2.35618417 4.74111658 4.57153658 5.73046875 8.296875 C6.61853509 15.29234491 7.27423713 22.15912745 2.98046875 28.109375 C-0.04470692 31.56999262 -2.68795955 33.13953518 -7.29296875 33.59765625 C-15.42615096 33.62609395 -20.10134334 33.32731561 -26.14453125 27.546875 C-29.80557152 22.0138465 -29.25606164 14.60386582 -28.26953125 8.296875 C-25.67211041 3.70683817 -22.63999504 -0.65855978 -17.37890625 -2.2890625 C-11.13326513 -3.51505872 -5.57390871 -3.24866536 0 0 Z " fill="#FBFBFB" transform="translate(529.26953125,540.703125)"/>
<path d="M0 0 C14.96551724 0 14.96551724 0 19 3 C24.26642452 8.83576772 24.34450579 12.83729192 24.28125 20.5703125 C23.81903136 26.206812 21.49545687 28.6167024 17.5 32.3125 C11.79846126 36.16103865 7.2385405 35 0 35 C0 23.45 0 11.9 0 0 Z " fill="#FCFCFC" transform="translate(661,539)"/>
<path d="M0 0 C1.51098081 0.0119079 3.02198806 0.05587745 4.53125 0.12890625 C5.67013672 0.13180664 5.67013672 0.13180664 6.83203125 0.13476562 C10.22331198 0.21494477 12.49074614 0.39635272 15.5 2.0390625 C18.62363093 5.40971527 18.1956839 9.20229994 18.21875 13.56640625 C18.23292969 14.78070312 18.24710938 15.995 18.26171875 17.24609375 C17.97323077 21.55874457 17.34361109 24.30933545 14.33984375 27.47265625 C9.40177574 30.0795551 3.4287674 29.38683107 -1.96875 28.69140625 C-5.51289126 26.87763984 -6.71742088 24.44539362 -7.96875 20.69140625 C-8.14051408 18.42468354 -8.23526239 16.15166226 -8.28125 13.87890625 C-8.33732422 12.07486328 -8.33732422 12.07486328 -8.39453125 10.234375 C-7.71707481 4.5971916 -6.03359133 0.5032064 0 0 Z " fill="#33E7E4" transform="translate(663.96875,629.30859375)"/>
<path d="M0 0 C0.72380859 0.00322266 1.44761719 0.00644531 2.19335938 0.00976562 C2.90556641 -0.00634766 3.61777344 -0.02246094 4.3515625 -0.0390625 C8.81493893 -0.04319143 12.04435417 0.22640504 15.38085938 3.32226562 C15.83398438 6.16992188 15.83398438 6.16992188 15.63085938 9.38476562 C15.23602079 13.50755707 15.23602079 13.50755707 16.38085938 17.32226562 C16.95467424 24.43756993 16.95467424 24.43756993 14.93164062 27.55664062 C11.13787186 30.18264902 7.75761175 29.83238931 3.25585938 29.69726562 C2.02029297 29.69533203 2.02029297 29.69533203 0.75976562 29.69335938 C-5.33786467 29.60354158 -5.33786467 29.60354158 -7.61914062 27.32226562 C-7.87792969 24.83203125 -7.87792969 24.83203125 -7.88476562 21.72851562 C-7.88734375 20.61605469 -7.88992187 19.50359375 -7.89257812 18.35742188 C-7.88097656 16.60751953 -7.88097656 16.60751953 -7.86914062 14.82226562 C-7.876875 13.65566406 -7.88460937 12.4890625 -7.89257812 11.28710938 C-7.89 10.17464844 -7.88742188 9.0621875 -7.88476562 7.91601562 C-7.88250977 6.89185547 -7.88025391 5.86769531 -7.87792969 4.8125 C-7.35499545 -0.21950873 -4.39846775 0.04500758 0 0 Z " fill="#228777" transform="translate(227.619140625,628.677734375)"/>
<path d="M0 0 C4.1880789 1.05061773 6.54196051 2.31294077 9 6 C9.265625 9.3984375 9.265625 9.3984375 9.25 13.375 C9.25515625 14.68210937 9.2603125 15.98921875 9.265625 17.3359375 C8.94705913 21.73027255 8.35191343 24.50113946 5.3828125 27.79296875 C1.94099178 29.53644843 -1.35960067 29.39669945 -5.125 29.3125 C-5.85332031 29.31572266 -6.58164062 29.31894531 -7.33203125 29.32226562 C-12.73263889 29.26736111 -12.73263889 29.26736111 -15 27 C-15.45756227 22.85143538 -15.32402177 18.67087925 -15.3125 14.5 C-15.32861328 13.33339844 -15.34472656 12.16679688 -15.36132812 10.96484375 C-15.36197266 9.85238281 -15.36261719 8.73992188 -15.36328125 7.59375 C-15.36626221 6.56958984 -15.36924316 5.54542969 -15.37231445 4.49023438 C-15.24945068 3.66845703 -15.12658691 2.84667969 -15 2 C-10.32134197 -1.11910535 -5.48071313 -0.46734763 0 0 Z " fill="#249D90" transform="translate(337,629)"/>
<path d="M0 0 C0.71671875 -0.01224609 1.4334375 -0.02449219 2.171875 -0.03710938 C6.29448434 -0.04847686 9.59790556 0.20115093 13.25 2.1875 C14.97617094 5.63984188 14.75110436 9.41294766 14.25 13.1875 C12.25 16.25 12.25 16.25 10.25 18.1875 C10.6109375 18.73019531 10.971875 19.27289062 11.34375 19.83203125 C11.8078125 20.54746094 12.271875 21.26289062 12.75 22 C13.2140625 22.70769531 13.678125 23.41539062 14.15625 24.14453125 C15.25 26.1875 15.25 26.1875 15.25 29.1875 C12.95703125 29.4921875 12.95703125 29.4921875 10.25 29.1875 C8.44921875 27.0703125 8.44921875 27.0703125 6.9375 24.3125 C6.42574219 23.40757812 5.91398438 22.50265625 5.38671875 21.5703125 C4.25 19.1875 4.25 19.1875 4.25 17.1875 C1.61 17.1875 -1.03 17.1875 -3.75 17.1875 C-3.75 21.1475 -3.75 25.1075 -3.75 29.1875 C-5.4 28.8575 -7.05 28.5275 -8.75 28.1875 C-8.75 22.9075 -8.75 17.6275 -8.75 12.1875 C-0.335 11.6925 -0.335 11.6925 8.25 11.1875 C8.58 9.5375 8.91 7.8875 9.25 6.1875 C3.64 6.1875 -1.97 6.1875 -7.75 6.1875 C-8.08 4.5375 -8.41 2.8875 -8.75 1.1875 C-6.73100129 -0.83149871 -2.76222841 0.00243154 0 0 Z " fill="#25C4BC" transform="translate(510.75,628.8125)"/>
<path d="M0 0 C1.97119141 -0.34057617 1.97119141 -0.34057617 4.3515625 -0.29296875 C5.62773437 -0.2784668 5.62773437 -0.2784668 6.9296875 -0.26367188 C7.81914062 -0.23853516 8.70859375 -0.21339844 9.625 -0.1875 C10.97078125 -0.16719727 10.97078125 -0.16719727 12.34375 -0.14648438 C14.56309789 -0.11106925 16.78125188 -0.06168461 19 0 C19 1.65 19 3.3 19 5 C13.72 5 8.44 5 3 5 C3.33 6.65 3.66 8.3 4 10 C5.35544922 10.05607422 5.35544922 10.05607422 6.73828125 10.11328125 C7.91777344 10.17902344 9.09726562 10.24476563 10.3125 10.3125 C12.07013672 10.39951172 12.07013672 10.39951172 13.86328125 10.48828125 C17 11 17 11 18.89453125 12.19921875 C20.43083701 14.70182283 20.39854719 16.58014903 20.375 19.5 C20.38273437 20.4590625 20.39046875 21.418125 20.3984375 22.40625 C19.93146819 25.44612867 19.38417106 26.14118312 17 28 C15.00708008 28.34057617 15.00708008 28.34057617 12.76953125 28.29296875 C11.96708984 28.28330078 11.16464844 28.27363281 10.33789062 28.26367188 C9.08782227 28.2259668 9.08782227 28.2259668 7.8125 28.1875 C6.5450293 28.16719727 6.5450293 28.16719727 5.25195312 28.14648438 C3.16769616 28.11115799 1.08376723 28.05735139 -1 28 C-1.38218767 26.34385343 -1.71395102 24.67542976 -2 23 C-1 22 -1 22 2.59765625 21.90234375 C4.08596867 21.9090178 5.57426432 21.92097817 7.0625 21.9375 C7.82111328 21.94201172 8.57972656 21.94652344 9.36132812 21.95117188 C11.24091871 21.9629932 13.12046899 21.98092922 15 22 C15 20.02 15 18.04 15 16 C14.02417969 16.03480469 13.04835938 16.06960938 12.04296875 16.10546875 C10.13451172 16.14607422 10.13451172 16.14607422 8.1875 16.1875 C6.29064453 16.23970703 6.29064453 16.23970703 4.35546875 16.29296875 C1 16 1 16 -0.9296875 14.80078125 C-2.34602109 12.41782583 -2.36589798 10.76026485 -2.3125 8 C-2.30863281 7.13375 -2.30476563 6.2675 -2.30078125 5.375 C-2 3 -2 3 0 0 Z " fill="#28ACA1" transform="translate(386,630)"/>
<path d="M0 0 C1.98 0 3.96 0 6 0 C6 7.26 6 14.52 6 22 C12.435 21.505 12.435 21.505 19 21 C19.33 14.07 19.66 7.14 20 0 C21.65 0 23.3 0 25 0 C25.05814085 3.58326501 25.09364357 7.16640838 25.125 10.75 C25.14175781 11.76578125 25.15851563 12.7815625 25.17578125 13.828125 C25.18222656 14.8078125 25.18867188 15.7875 25.1953125 16.796875 C25.20578613 17.69760742 25.21625977 18.59833984 25.22705078 19.52636719 C24.98412951 22.17290297 24.40218418 23.75844281 23 26 C18.19415306 29.41095259 11.58349165 28.71474355 6 28 C2.94544225 26.33331433 1.55108699 24.10217397 0 21 C-0.08400529 19.40552536 -0.10727467 17.80759455 -0.09765625 16.2109375 C-0.09443359 15.26992188 -0.09121094 14.32890625 -0.08789062 13.359375 C-0.07951172 12.37453125 -0.07113281 11.3896875 -0.0625 10.375 C-0.05798828 9.38242187 -0.05347656 8.38984375 -0.04882812 7.3671875 C-0.03702145 4.9113984 -0.020554 2.45572896 0 0 Z " fill="#2FC0B8" transform="translate(470,630)"/>
<path d="M0 0 C1.65 0 3.3 0 5 0 C5.33 6.93 5.66 13.86 6 21 C10.29 21.33 14.58 21.66 19 22 C19 14.74 19 7.48 19 0 C20.65 0 22.3 0 24 0 C24.0871747 3.74985325 24.14045003 7.49944555 24.1875 11.25 C24.21263672 12.31347656 24.23777344 13.37695312 24.26367188 14.47265625 C24.27333984 15.49746094 24.28300781 16.52226563 24.29296875 17.578125 C24.3086792 18.52075195 24.32438965 19.46337891 24.34057617 20.43457031 C23.93268855 23.50703137 23.21359085 24.84388484 21 27 C19.0546875 27.51757812 19.0546875 27.51757812 16.875 27.53125 C16.08609375 27.53640625 15.2971875 27.5415625 14.484375 27.546875 C13.66453125 27.53140625 12.8446875 27.5159375 12 27.5 C11.18015625 27.51546875 10.3603125 27.5309375 9.515625 27.546875 C8.72671875 27.54171875 7.9378125 27.5365625 7.125 27.53125 C6.40570313 27.52673828 5.68640625 27.52222656 4.9453125 27.51757812 C3 27 3 27 1.26049805 25.30566406 C-0.26752869 22.51064479 -0.34585247 20.75114817 -0.29296875 17.578125 C-0.28330078 16.55332031 -0.27363281 15.52851562 -0.26367188 14.47265625 C-0.23853516 13.40917969 -0.21339844 12.34570312 -0.1875 11.25 C-0.17396484 10.17105469 -0.16042969 9.09210937 -0.14648438 7.98046875 C-0.11116584 5.3198058 -0.06184199 2.66015704 0 0 Z " fill="#218D7E" transform="translate(251,630)"/>
<path d="M0 0 C1.65 0 3.3 0 5 0 C7.64 6.6 10.28 13.2 13 20 C14.98 15.545 14.98 15.545 17 11 C17.91370527 8.97782597 18.82983808 6.95674421 19.75 4.9375 C20.17796875 3.99777344 20.6059375 3.05804687 21.046875 2.08984375 C21.36140625 1.40019531 21.6759375 0.71054687 22 0 C23.65 0 25.3 0 27 0 C26.05469423 5.32899899 24.13768219 10.05965019 22.125 15.0625 C21.59712891 16.40924805 21.59712891 16.40924805 21.05859375 17.78320312 C20.71183594 18.65009766 20.36507812 19.51699219 20.0078125 20.41015625 C19.69473145 21.19527588 19.38165039 21.98039551 19.05908203 22.78930664 C17.9457714 25.11319501 16.60920114 26.99435801 15 29 C13.1875 28.8125 13.1875 28.8125 11 28 C7.86368823 23.54501169 5.91703558 18.43434486 3.8125 13.4375 C3.26045898 12.16229492 3.26045898 12.16229492 2.69726562 10.86132812 C2.34986328 10.03955078 2.00246094 9.21777344 1.64453125 8.37109375 C1.32846924 7.62786865 1.01240723 6.88464355 0.68676758 6.11889648 C0 4 0 4 0 0 Z " fill="#29DFDB" transform="translate(622,629)"/>
<path d="M0 0 C1.18916016 0.02707031 1.18916016 0.02707031 2.40234375 0.0546875 C4.35208348 0.10166918 6.30119878 0.17340956 8.25 0.25 C8.25 1.9 8.25 3.55 8.25 5.25 C3.3 5.58 -1.65 5.91 -6.75 6.25 C-7.08 11.53 -7.41 16.81 -7.75 22.25 C-2.47 22.25 2.81 22.25 8.25 22.25 C8.25 24.23 8.25 26.21 8.25 28.25 C5.66603321 28.33112454 3.08462432 28.39054748 0.5 28.4375 C-0.22960937 28.46263672 -0.95921875 28.48777344 -1.7109375 28.51367188 C-4.96050186 28.55798412 -7.31394273 28.4853876 -10.203125 26.92578125 C-13.68555109 23.15315299 -13.00532133 18.13456816 -13.0625 13.3125 C-13.09150391 12.50103516 -13.12050781 11.68957031 -13.15039062 10.85351562 C-13.18927458 7.20739676 -13.12394551 4.89770934 -11.27734375 1.69921875 C-7.53470408 -0.44686984 -4.23050338 -0.18240976 0 0 Z " fill="#28B7AE" transform="translate(454.75,629.75)"/>
<path d="M0 0 C1.65 0 3.3 0 5 0 C7.64 6.6 10.28 13.2 13 20 C14.60887394 17.58668908 15.65308404 15.63221894 16.7265625 12.98828125 C17.0359375 12.23095703 17.3453125 11.47363281 17.6640625 10.69335938 C17.98117187 9.90767578 18.29828125 9.12199219 18.625 8.3125 C18.94984375 7.51521484 19.2746875 6.71792969 19.609375 5.89648438 C20.40920701 3.93219104 21.20499631 1.96625244 22 0 C23.65 0 25.3 0 27 0 C26.3679888 5.79343601 24.28943923 10.83070685 22.125 16.1875 C21.59712891 17.54004883 21.59712891 17.54004883 21.05859375 18.91992188 C20.71183594 19.78552734 20.36507812 20.65113281 20.0078125 21.54296875 C19.69473145 22.32696045 19.38165039 23.11095215 19.05908203 23.91870117 C17.9507279 26.09682911 16.8901078 27.45942215 15 29 C12.99609375 29.015625 12.99609375 29.015625 11 28 C6.10598082 20.74032961 0 8.84810679 0 0 Z " fill="#28F2F1" transform="translate(712,629)"/>
<path d="M0 0 C0.83265381 0.00523682 1.66530762 0.01047363 2.52319336 0.01586914 C3.42231445 0.0190918 4.32143555 0.02231445 5.24780273 0.02563477 C6.66609375 0.03820312 6.66609375 0.03820312 8.11303711 0.05102539 C9.06243164 0.05553711 10.01182617 0.06004883 10.98999023 0.06469727 C13.34356776 0.07652429 15.69702188 0.09300514 18.05053711 0.11352539 C18.05053711 1.76352539 18.05053711 3.41352539 18.05053711 5.11352539 C12.77053711 5.11352539 7.49053711 5.11352539 2.05053711 5.11352539 C2.05053711 6.76352539 2.05053711 8.41352539 2.05053711 10.11352539 C7.33053711 10.11352539 12.61053711 10.11352539 18.05053711 10.11352539 C18.05053711 12.42352539 18.05053711 14.73352539 18.05053711 17.11352539 C15.48625196 17.24912214 12.92918495 17.34785727 10.36303711 17.42602539 C9.64180664 17.46791992 8.92057617 17.50981445 8.17749023 17.55297852 C4.10070137 17.64605589 2.47228531 17.417602 -0.94555664 14.95336914 C-3.22477451 11.72336643 -3.52449676 10.25892177 -3.32446289 6.36352539 C-3.29094727 5.39930664 -3.25743164 4.43508789 -3.22290039 3.44165039 C-2.83809108 0.16527393 -2.83809108 0.16527393 0 0 Z " fill="#2DF9F9" transform="translate(749.949462890625,640.886474609375)"/>
<path d="M0 0 C0.78552246 0.01047363 1.57104492 0.02094727 2.38037109 0.03173828 C3.23115234 0.03818359 4.08193359 0.04462891 4.95849609 0.05126953 C6.29267578 0.07640625 6.29267578 0.07640625 7.65380859 0.10205078 C8.99958984 0.11558594 8.99958984 0.11558594 10.37255859 0.12939453 C12.59157445 0.15300108 14.81005937 0.18592768 17.02880859 0.22705078 C17.02880859 1.87705078 17.02880859 3.52705078 17.02880859 5.22705078 C11.74880859 5.22705078 6.46880859 5.22705078 1.02880859 5.22705078 C1.35880859 6.54705078 1.68880859 7.86705078 2.02880859 9.22705078 C3.635625 9.31792969 3.635625 9.31792969 5.27490234 9.41064453 C6.67205251 9.49503615 8.06918716 9.57968484 9.46630859 9.66455078 C10.17335938 9.70386719 10.88041016 9.74318359 11.60888672 9.78369141 C16.91552734 10.11376953 16.91552734 10.11376953 18.02880859 11.22705078 C18.15380859 13.72705078 18.15380859 13.72705078 18.02880859 16.22705078 C16.05920488 18.1966545 12.45785244 17.50171118 9.77880859 17.53955078 C9.10978516 17.56855469 8.44076172 17.59755859 7.75146484 17.62744141 C4.11363479 17.673897 2.18525625 17.32849077 -0.89306641 15.33251953 C-3.80534097 12.38192557 -4.12592153 10.764299 -4.15869141 6.72705078 C-4.17287109 5.93298828 -4.18705078 5.13892578 -4.20166016 4.32080078 C-3.88188434 1.41571883 -2.93240555 0.33776779 0 0 Z " fill="#2ACCC5" transform="translate(536.97119140625,640.77294921875)"/>
<path d="M0 0 C0.83265381 0.00523682 1.66530762 0.01047363 2.52319336 0.01586914 C3.42231445 0.0190918 4.32143555 0.02231445 5.24780273 0.02563477 C6.66609375 0.03820312 6.66609375 0.03820312 8.11303711 0.05102539 C9.06243164 0.05553711 10.01182617 0.06004883 10.98999023 0.06469727 C13.34356776 0.07652429 15.69702188 0.09300514 18.05053711 0.11352539 C18.05053711 1.76352539 18.05053711 3.41352539 18.05053711 5.11352539 C12.77053711 5.11352539 7.49053711 5.11352539 2.05053711 5.11352539 C2.38053711 6.43352539 2.71053711 7.75352539 3.05053711 9.11352539 C8.00053711 9.44352539 12.95053711 9.77352539 18.05053711 10.11352539 C18.05053711 12.42352539 18.05053711 14.73352539 18.05053711 17.11352539 C15.63356839 17.16763663 13.21781924 17.20724817 10.80053711 17.23852539 C10.11862305 17.2552832 9.43670898 17.27204102 8.73413086 17.28930664 C2.01042757 17.35458531 2.01042757 17.35458531 -0.94946289 15.11352539 C-3.03336237 12.0829965 -3.1958226 9.54857285 -3.13696289 5.92602539 C-3.13051758 5.0455957 -3.12407227 4.16516602 -3.11743164 3.25805664 C-2.90099172 0.49467247 -2.77144829 0.16139304 0 0 Z " fill="#28B2A8" transform="translate(415.949462890625,640.886474609375)"/>
<path d="M0 0 C0.83265381 0.00523682 1.66530762 0.01047363 2.52319336 0.01586914 C3.42231445 0.0190918 4.32143555 0.02231445 5.24780273 0.02563477 C6.66609375 0.03820312 6.66609375 0.03820312 8.11303711 0.05102539 C9.06243164 0.05553711 10.01182617 0.06004883 10.98999023 0.06469727 C13.34356776 0.07652429 15.69702188 0.09300514 18.05053711 0.11352539 C18.05053711 1.76352539 18.05053711 3.41352539 18.05053711 5.11352539 C12.77053711 5.11352539 7.49053711 5.11352539 2.05053711 5.11352539 C2.71053711 6.76352539 3.37053711 8.41352539 4.05053711 10.11352539 C10.98053711 10.60852539 10.98053711 10.60852539 18.05053711 11.11352539 C18.05053711 13.09352539 18.05053711 15.07352539 18.05053711 17.11352539 C15.63356839 17.16763663 13.21781924 17.20724817 10.80053711 17.23852539 C10.11862305 17.2552832 9.43670898 17.27204102 8.73413086 17.28930664 C2.01042757 17.35458531 2.01042757 17.35458531 -0.94946289 15.11352539 C-3.03336237 12.0829965 -3.1958226 9.54857285 -3.13696289 5.92602539 C-3.13051758 5.0455957 -3.12407227 4.16516602 -3.11743164 3.25805664 C-2.90099172 0.49467247 -2.77144829 0.16139304 0 0 Z " fill="#24D7D2" transform="translate(595.949462890625,640.886474609375)"/>
<path d="M0 0 C10.05859375 -0.09765625 10.05859375 -0.09765625 13 0 C14.98119355 1.98119355 14.18500411 5.73445064 14.1875 8.4375 C14.19974609 9.13166016 14.21199219 9.82582031 14.22460938 10.54101562 C14.22989842 12.36220901 14.12169207 14.1828692 14 16 C12 18 12 18 9.1796875 18.1953125 C6.11979167 18.13020833 3.05989583 18.06510417 0 18 C0 12.06 0 6.12 0 0 Z " fill="#F2F9F8" transform="translate(327,635)"/>
<path d="M0 0 C4.62 0 9.24 0 14 0 C14 5.61 14 11.22 14 17 C9.38 17 4.76 17 0 17 C0 11.39 0 5.78 0 0 Z " fill="#FDFEFE" transform="translate(662,635)"/>
<path d="M0 0 C1.98 0 3.96 0 6 0 C6.33 7.26 6.66 14.52 7 22 C13.93 22.495 13.93 22.495 21 23 C21 24.65 21 26.3 21 28 C18.60225255 28.13572155 16.21224755 28.23436868 13.8125 28.3125 C12.80219727 28.3753418 12.80219727 28.3753418 11.77148438 28.43945312 C7.78163682 28.53676648 6.2010498 28.16454409 3.07421875 25.60546875 C0.30224281 22.12353287 -0.12391956 20.57064739 -0.09765625 16.2109375 C-0.09443359 15.26992188 -0.09121094 14.32890625 -0.08789062 13.359375 C-0.07951172 12.37453125 -0.07113281 11.3896875 -0.0625 10.375 C-0.05798828 9.38242187 -0.05347656 8.38984375 -0.04882812 7.3671875 C-0.03702145 4.9113984 -0.020554 2.45572896 0 0 Z " fill="#309C8F" transform="translate(294,630)"/>
<path d="M0 0 C1.65 0 3.3 0 5 0 C5.33 7.26 5.66 14.52 6 22 C12.93 22.495 12.93 22.495 20 23 C20 24.65 20 26.3 20 28 C17.58265458 28.08117951 15.16805051 28.14056926 12.75 28.1875 C12.06808594 28.21263672 11.38617187 28.23777344 10.68359375 28.26367188 C7.54523342 28.30937615 5.35729089 28.19535744 2.578125 26.67578125 C-0.22298249 23.7013379 -0.12010152 20.77756293 -0.09765625 16.89453125 C-0.09443359 15.91162109 -0.09121094 14.92871094 -0.08789062 13.91601562 C-0.07951172 12.89185547 -0.07113281 11.86769531 -0.0625 10.8125 C-0.05798828 9.77673828 -0.05347656 8.74097656 -0.04882812 7.67382812 C-0.0370401 5.11582734 -0.02058515 2.55794267 0 0 Z " fill="#28ECE9" transform="translate(689,630)"/>
<path d="M0 0 C4.62 0 9.24 0 14 0 C14 1.65 14 3.3 14 5 C13 6 13 6 10.93359375 6.09765625 C10.10988281 6.08605469 9.28617188 6.07445312 8.4375 6.0625 C7.61121094 6.05347656 6.78492188 6.04445313 5.93359375 6.03515625 C5.29550781 6.02355469 4.65742188 6.01195312 4 6 C4 7.65 4 9.3 4 11 C4.63808594 10.98839844 5.27617187 10.97679687 5.93359375 10.96484375 C7.17302734 10.95130859 7.17302734 10.95130859 8.4375 10.9375 C9.26121094 10.92589844 10.08492187 10.91429687 10.93359375 10.90234375 C13 11 13 11 14 12 C14 13.65 14 15.3 14 17 C9.38 17 4.76 17 0 17 C0 11.39 0 5.78 0 0 Z " fill="#F8FBFB" transform="translate(225,635)"/>
<path d="M0 0 C1.98 0 3.96 0 6 0 C6 8.91 6 17.82 6 27 C4.35 27.33 2.7 27.66 1 28 C0 27 0 27 -0.11352539 24.40795898 C-0.10828857 23.28204346 -0.10305176 22.15612793 -0.09765625 20.99609375 C-0.09443359 19.78115234 -0.09121094 18.56621094 -0.08789062 17.31445312 C-0.07951172 16.03505859 -0.07113281 14.75566406 -0.0625 13.4375 C-0.05798828 12.15423828 -0.05347656 10.87097656 -0.04882812 9.54882812 C-0.03699545 6.36583978 -0.02051068 3.18294238 0 0 Z " fill="#3C9F92" transform="translate(282,630)"/>
<path d="M0 0 C0 2.97 0 5.94 0 9 C-9.39146903 9.09908936 -18.65741704 9.12998844 -28 8 C-28 7.34 -28 6.68 -28 6 C-23.52121171 4.99830015 -19.0419082 3.99892378 -14.5625 3 C-13.28310547 2.71382813 -12.00371094 2.42765625 -10.68554688 2.1328125 C-9.47060547 1.86210937 -8.25566406 1.59140625 -7.00390625 1.3125 C-5.31503296 0.93544922 -5.31503296 0.93544922 -3.59204102 0.55078125 C-1 0 -1 0 0 0 Z " fill="#DCFBFA" transform="translate(550,413)"/>
<path d="M0 0 C3.72943822 0.13935544 7.45847096 0.28762301 11.1875 0.4375 C12.24259766 0.47681641 13.29769531 0.51613281 14.38476562 0.55664062 C15.40634766 0.59853516 16.42792969 0.64042969 17.48046875 0.68359375 C18.88655396 0.73858032 18.88655396 0.73858032 20.32104492 0.79467773 C22.95114982 0.99625599 25.42766414 1.42678321 28 2 C27.67 4.97 27.34 7.94 27 11 C18 8 9 5 0 2 C0 1.34 0 0.68 0 0 Z " fill="#DCFBFB" transform="translate(522,425)"/>
<path d="M0 0 C2.24040692 0.66242801 4.47841252 1.3320563 6.71484375 2.0078125 C8.48474912 2.5423618 10.25508188 3.07554797 12.02783203 3.60058594 C14.20832807 4.24720562 16.38550577 4.90419757 18.5625 5.5625 C19.27728516 5.77221436 19.99207031 5.98192871 20.72851562 6.19799805 C22.50456538 6.74027553 24.25536389 7.36386914 26 8 C26.33 8.66 26.66 9.32 27 10 C26.22265625 11.7265625 26.22265625 11.7265625 25.0625 13.625 C24.381875 14.73875 23.70125 15.8525 23 17 C20.11050475 15.63437239 17.55794233 14.07456069 14.9609375 12.21484375 C14.21585938 11.68439453 13.47078125 11.15394531 12.703125 10.60742188 C11.93484375 10.05634766 11.1665625 9.50527344 10.375 8.9375 C8.84201217 7.84123545 7.30819713 6.74612643 5.7734375 5.65234375 C5.09716309 5.16757568 4.42088867 4.68280762 3.72412109 4.18334961 C2.00446305 2.94497244 2.00446305 2.94497244 0 2 C0 1.34 0 0.68 0 0 Z " fill="#E1FBFB" transform="translate(520,431)"/>
<path d="M0 0 C0 9.24 0 18.48 0 28 C-2 27 -2 27 -2.86962891 24.71508789 C-3.15241699 23.72758545 -3.43520508 22.74008301 -3.7265625 21.72265625 C-4.0359375 20.65208984 -4.3453125 19.58152344 -4.6640625 18.47851562 C-4.98117187 17.35123047 -5.29828125 16.22394531 -5.625 15.0625 C-6.11226563 13.37737305 -6.11226563 13.37737305 -6.609375 11.65820312 C-9 3.30608259 -9 3.30608259 -9 1 C-2.25 0 -2.25 0 0 0 Z " fill="#F9FDFD" transform="translate(498,372)"/>
<path d="M0 0 C0.33 2.31 0.66 4.62 1 7 C-6.56890781 9.5628356 -14.08783465 10.94587139 -22 12 C-22 11.01 -22 10.02 -22 9 C-19.09465435 7.29241747 -16.17416582 5.61261646 -13.25 3.9375 C-12.0125 3.20950195 -12.0125 3.20950195 -10.75 2.46679688 C-9.95078125 2.01240234 -9.1515625 1.55800781 -8.328125 1.08984375 C-7.5949707 0.66566162 -6.86181641 0.24147949 -6.10644531 -0.19555664 C-3.61993956 -1.14514362 -2.46152694 -0.89753304 0 0 Z " fill="#E1FCFB" transform="translate(547,402)"/>
<path d="M0 0 C7.57748121 4.69012377 14.85282508 9.6776357 22 15 C21.29822123 18.23486594 20.63523506 19.89181195 18 22 C17.34 22 16.68 22 16 22 C14.15152689 19.8270767 12.4078651 17.64597332 10.6875 15.375 C9.73394877 14.13214003 8.77952763 12.88994698 7.82421875 11.6484375 C7.35806152 11.03838867 6.8919043 10.42833984 6.41162109 9.79980469 C5.0345738 8.0440813 3.60148747 6.35365924 2.14453125 4.6640625 C0 2 0 2 0 0 Z " fill="#EAFCFB" transform="translate(517,436)"/>
<path d="M0 0 C0.66 0 1.32 0 2 0 C3.67257264 3.78908876 5.33705115 7.58167885 7 11.375 C7.47695313 12.45523437 7.95390625 13.53546875 8.4453125 14.6484375 C8.89648438 15.6796875 9.34765625 16.7109375 9.8125 17.7734375 C10.23144531 18.72653809 10.65039062 19.67963867 11.08203125 20.66162109 C12 23 12 23 12 25 C9.09399739 26.25664978 7.20395416 27 4 27 C3.32778525 23.25097253 2.66319433 19.50063279 2 15.75 C1.80921875 14.68652344 1.6184375 13.62304688 1.421875 12.52734375 C1.24140625 11.50253906 1.0609375 10.47773438 0.875 9.421875 C0.70742188 8.47924805 0.53984375 7.53662109 0.3671875 6.56542969 C0 4 0 4 0 0 Z " fill="#F2FCFB" transform="translate(506,443)"/>
<path d="M0 0 C0.66 0 1.32 0 2 0 C2.5055539 3.56173477 3.00346114 7.12449819 3.5 10.6875 C3.64308594 11.69490234 3.78617187 12.70230469 3.93359375 13.74023438 C4.06894531 14.71669922 4.20429688 15.69316406 4.34375 16.69921875 C4.46943359 17.59471436 4.59511719 18.49020996 4.72460938 19.4128418 C4.99616516 21.96397361 5.04847897 24.4366743 5 27 C2.36 27 -0.28 27 -3 27 C-2.48143798 17.897872 -1.53767346 8.98717886 0 0 Z " fill="#EFFAF9" transform="translate(500,444)"/>
<path d="M0 0 C4.58775843 4.44439098 8.79993274 9.19024556 13 14 C13.53625 14.6084375 14.0725 15.216875 14.625 15.84375 C18 19.75568182 18 19.75568182 18 22 C15.09451118 24.04169485 13.59857954 25 10 25 C8.51586841 21.58546886 7.03856685 18.16802429 5.5625 14.75 C5.14162109 13.78191406 4.72074219 12.81382812 4.28710938 11.81640625 C3.88427734 10.88183594 3.48144531 9.94726562 3.06640625 8.984375 C2.69459229 8.12553711 2.32277832 7.26669922 1.93969727 6.38183594 C1.10262318 4.26011736 0.48850005 2.22413847 0 0 Z " fill="#EEFBFB" transform="translate(512,440)"/>
<path d="M0 0 C5.70323584 1.62682465 10.68013903 4.33197987 15.875 7.125 C16.75414062 7.59292969 17.63328125 8.06085938 18.5390625 8.54296875 C20.69494271 9.6912093 22.84846777 10.84363903 25 12 C21.52474084 13.17629657 19.12508519 12.81182496 15.578125 12.00390625 C14.55332031 11.77509766 13.52851563 11.54628906 12.47265625 11.31054688 C11.40917969 11.06369141 10.34570312 10.81683594 9.25 10.5625 C8.17105469 10.31951172 7.09210938 10.07652344 5.98046875 9.82617188 C3.31838893 9.22543705 0.65847791 8.61644487 -2 8 C-1.125 2.25 -1.125 2.25 0 0 Z " fill="#EFF7F7" transform="translate(455,402)"/>
<path d="M0 0 C0.33 0 0.66 0 1 0 C0.56408185 9.14280961 -0.0422461 18.02854522 -2 27 C-4.31 26.67 -6.62 26.34 -9 26 C-10.26555526 22.20333423 -9.51624012 21.26468472 -7.91015625 17.67578125 C-7.45576172 16.64775391 -7.00136719 15.61972656 -6.53320312 14.56054688 C-6.04787109 13.48869141 -5.56253906 12.41683594 -5.0625 11.3125 C-4.58103516 10.22904297 -4.09957031 9.14558594 -3.60351562 8.02929688 C-2.41091362 5.34889435 -1.20946012 2.67282782 0 0 Z " fill="#EFF9F9" transform="translate(494,443)"/>
<path d="M0 0 C0.83265381 0.00523682 1.66530762 0.01047363 2.52319336 0.01586914 C3.42231445 0.0190918 4.32143555 0.02231445 5.24780273 0.02563477 C6.66609375 0.03820312 6.66609375 0.03820312 8.11303711 0.05102539 C9.06243164 0.05553711 10.01182617 0.06004883 10.98999023 0.06469727 C13.34356776 0.07652429 15.69702188 0.09300514 18.05053711 0.11352539 C18.43272478 1.76967196 18.76448813 3.43809563 19.05053711 5.11352539 C18.05053711 6.11352539 18.05053711 6.11352539 16.00927734 6.22705078 C15.134729 6.22181396 14.26018066 6.21657715 13.35913086 6.21118164 C12.41489258 6.20795898 11.4706543 6.20473633 10.49780273 6.20141602 C9.50458008 6.19303711 8.51135742 6.1846582 7.48803711 6.17602539 C6.49094727 6.17151367 5.49385742 6.16700195 4.46655273 6.16235352 C1.99448862 6.15052546 -0.47745807 6.13404388 -2.94946289 6.11352539 C-2.99218389 4.44740634 -2.99010121 2.77969654 -2.94946289 1.11352539 C-1.94946289 0.11352539 -1.94946289 0.11352539 0 0 Z " fill="#42D1CB" transform="translate(535.949462890625,628.886474609375)"/>
<path d="M0 0 C0.83265381 0.00523682 1.66530762 0.01047363 2.52319336 0.01586914 C3.42231445 0.0190918 4.32143555 0.02231445 5.24780273 0.02563477 C6.66609375 0.03820312 6.66609375 0.03820312 8.11303711 0.05102539 C9.06243164 0.05553711 10.01182617 0.06004883 10.98999023 0.06469727 C13.34356776 0.07652429 15.69702188 0.09300514 18.05053711 0.11352539 C18.43272478 1.76967196 18.76448813 3.43809563 19.05053711 5.11352539 C18.05053711 6.11352539 18.05053711 6.11352539 16.00927734 6.22705078 C15.134729 6.22181396 14.26018066 6.21657715 13.35913086 6.21118164 C12.41489258 6.20795898 11.4706543 6.20473633 10.49780273 6.20141602 C9.50458008 6.19303711 8.51135742 6.1846582 7.48803711 6.17602539 C6.49094727 6.17151367 5.49385742 6.16700195 4.46655273 6.16235352 C1.99448862 6.15052546 -0.47745807 6.13404388 -2.94946289 6.11352539 C-2.99218389 4.44740634 -2.99010121 2.77969654 -2.94946289 1.11352539 C-1.94946289 0.11352539 -1.94946289 0.11352539 0 0 Z " fill="#41BBB2" transform="translate(415.949462890625,628.886474609375)"/>
<path d="M0 0 C0.92780337 2.66446097 1.74373926 5.28676127 2.5 8 C2.72067139 8.77077881 2.94134277 9.54155762 3.16870117 10.33569336 C4.63631116 15.52234185 5.94256729 20.71283645 7 26 C2.76054957 22.28668662 0.09470155 17.69714467 -2.8125 12.9375 C-3.32748047 12.12216797 -3.84246094 11.30683594 -4.37304688 10.46679688 C-4.85451172 9.68240234 -5.33597656 8.89800781 -5.83203125 8.08984375 C-6.27264893 7.37691162 -6.7132666 6.66397949 -7.16723633 5.92944336 C-8 4 -8 4 -7 1 C-2.55696203 -1.27848101 -2.55696203 -1.27848101 0 0 Z " fill="#F0F9F8" transform="translate(485,376)"/>
<path d="M0 0 C1.62573242 2.01953125 1.62573242 2.01953125 3.35546875 4.8125 C3.97744141 5.80507813 4.59941406 6.79765625 5.24023438 7.8203125 C5.88283203 8.86960937 6.52542969 9.91890625 7.1875 11 C7.84169922 12.04929687 8.49589844 13.09859375 9.16992188 14.1796875 C10.78962121 16.78066454 12.39905616 19.38745167 14 22 C11 22 11 22 9.45703125 20.71484375 C8.91433594 20.12832031 8.37164062 19.54179687 7.8125 18.9375 C4.64449059 15.61478949 1.31415233 12.62325965 -2.203125 9.67578125 C-4.07674426 7.92842764 -5.52511967 6.0894138 -7 4 C-3.375 0 -3.375 0 0 0 Z " fill="#F2FAF9" transform="translate(473,382)"/>
<path d="M0 0 C-2.21063445 2.21063445 -3.78381301 2.83793863 -6.68359375 3.9453125 C-7.61107422 4.29980469 -8.53855469 4.65429688 -9.49414062 5.01953125 C-10.46544922 5.38433594 -11.43675781 5.74914062 -12.4375 6.125 C-13.40494141 6.49753906 -14.37238281 6.87007813 -15.36914062 7.25390625 C-22.61661516 10 -22.61661516 10 -26 10 C-26.33 7.36 -26.66 4.72 -27 2 C-24.18814406 1.66027199 -21.37571764 1.32809788 -18.5625 1 C-17.3878418 0.85691406 -17.3878418 0.85691406 -16.18945312 0.7109375 C-10.75624381 0.08488869 -5.46925737 -0.08759571 0 0 Z " fill="#F3F9F8" transform="translate(479,426)"/>
<path d="M0 0 C3.66910998 0.568225 5.24478235 1.94379598 7.75 4.625 C11.14507482 8.16657899 14.68117362 11.3970737 18.43359375 14.5546875 C20 16 20 16 21 18 C15.54406329 16.39323547 10.6697853 13.94969106 5.625 11.375 C4.79355469 10.95476562 3.96210938 10.53453125 3.10546875 10.1015625 C1.06843641 9.07133925 -0.96662189 8.03741179 -3 7 C-1.125 2.25 -1.125 2.25 0 0 Z " fill="#F2F9F8" transform="translate(461,391)"/>
<path d="M0 0 C1.21580562 3.64741687 0.68294489 4.40797225 -0.80078125 7.8515625 C-1.20103516 8.78484375 -1.60128906 9.718125 -2.01367188 10.6796875 C-2.44228516 11.65164063 -2.87089844 12.62359375 -3.3125 13.625 C-3.72951172 14.6046875 -4.14652344 15.584375 -4.57617188 16.59375 C-7.734375 23.8671875 -7.734375 23.8671875 -10 25 C-11.98 23.68 -13.96 22.36 -16 21 C-10.74121861 13.94216182 -5.37549325 6.96901891 0 0 Z " fill="#F6FBFB" transform="translate(488,441)"/>
<path d="M0 0 C0 3.53302703 -0.57315223 4.05862236 -2.7734375 6.6875 C-3.3509375 7.38617188 -3.9284375 8.08484375 -4.5234375 8.8046875 C-5.13445312 9.52914063 -5.74546875 10.25359375 -6.375 11 C-7.57134712 12.43663906 -8.76669976 13.87410699 -9.9609375 15.3125 C-10.76217041 16.26576172 -10.76217041 16.26576172 -11.57958984 17.23828125 C-13.16796363 19.1539878 -13.16796363 19.1539878 -15 22 C-18.40062014 20.59284684 -19.89229698 18.97131772 -22 16 C-21.51120361 15.65743164 -21.02240723 15.31486328 -20.51879883 14.96191406 C-18.28217458 13.39296652 -16.04732742 11.82150579 -13.8125 10.25 C-13.04357422 9.71117187 -12.27464844 9.17234375 -11.48242188 8.6171875 C-7.55642563 5.85382534 -3.70492111 3.05897294 0 0 Z " fill="#F3FAF9" transform="translate(484,436)"/>
<path d="M0 0 C-3.09943833 2.31889191 -6.20532287 4.62899078 -9.3125 6.9375 C-10.19357422 7.59685547 -11.07464844 8.25621094 -11.98242188 8.93554688 C-12.82998047 9.56396484 -13.67753906 10.19238281 -14.55078125 10.83984375 C-15.33106689 11.42113037 -16.11135254 12.00241699 -16.9152832 12.60131836 C-19 14 -19 14 -22 15 C-23.32 13.02 -24.64 11.04 -26 9 C-21.81746622 5.63974465 -17.43326457 4.07141154 -12.4375 2.25 C-11.57447266 1.92128906 -10.71144531 1.59257812 -9.82226562 1.25390625 C-8.99275391 0.94839844 -8.16324219 0.64289063 -7.30859375 0.328125 C-6.17635376 -0.09098145 -6.17635376 -0.09098145 -5.02124023 -0.51855469 C-3 -1 -3 -1 0 0 Z " fill="#F3F9F9" transform="translate(481,433)"/>
<path d="M0 0 C3.35533544 0.45002349 6.70899819 0.911526 10.0625 1.375 C11.00544922 1.50132812 11.94839844 1.62765625 12.91992188 1.7578125 C18.10996155 2.48116298 23.00581892 3.40684931 28 5 C28 5.33 28 5.66 28 6 C24.4587501 6.33786094 20.91694184 6.66947831 17.375 7 C16.37597656 7.09539062 15.37695312 7.19078125 14.34765625 7.2890625 C9.54861994 7.73400626 4.82618926 8.13177309 0 8 C0 5.36 0 2.72 0 0 Z " fill="#F3F9F9" transform="translate(451,415)"/>
<path d="M0 0 C6.93 0 13.86 0 21 0 C21 1.65 21 3.3 21 5 C14.07 5 7.14 5 0 5 C0 3.35 0 1.7 0 0 Z " fill="#34FAF9" transform="translate(747,630)"/>
<path d="M0 0 C6.93 0 13.86 0 21 0 C21 1.65 21 3.3 21 5 C14.07 5 7.14 5 0 5 C0 3.35 0 1.7 0 0 Z " fill="#31DAD5" transform="translate(593,630)"/>
<path d="M0 0 C3.37177797 1.39521847 5.25017709 2.76282761 7 6 C7.1875 9.75 7.1875 9.75 7 13 C2.22390502 11.35821735 -1.79382904 8.73453298 -6 6 C-4 4 -2 2 0 0 Z " fill="#F8FBFB" transform="translate(382,414)"/>
<path d="M0 0 C0.66 0 1.32 0 2 0 C2.88339877 6.91995707 0.11868832 10.59422159 -4 16 C-5.65 15.67 -7.3 15.34 -9 15 C-8.06652642 13.24784894 -7.1280468 11.49836437 -6.1875 9.75 C-5.66542969 8.77546875 -5.14335938 7.8009375 -4.60546875 6.796875 C-3.20190402 4.35173547 -1.84860874 2.12716622 0 0 Z " fill="#25B8AF" transform="translate(521,383)"/>
<path d="M0 0 C0.33 0 0.66 0 1 0 C1.02696009 2.7708983 1.04681952 5.5415345 1.0625 8.3125 C1.07087891 9.09818359 1.07925781 9.88386719 1.08789062 10.69335938 C1.09111328 11.45068359 1.09433594 12.20800781 1.09765625 12.98828125 C1.10289307 13.68477783 1.10812988 14.38127441 1.11352539 15.09887695 C1 17 1 17 0 20 C-1.98 20.33 -3.96 20.66 -6 21 C-5.37942343 18.43635601 -4.75370801 15.87415074 -4.125 13.3125 C-3.95097656 12.59126953 -3.77695312 11.87003906 -3.59765625 11.12695312 C-2.64902134 7.27971155 -1.59509159 3.64284431 0 0 Z " fill="#25BCB3" transform="translate(510,378)"/>
<path d="M0 0 C2.97 0.495 2.97 0.495 6 1 C4.35 6.61 2.7 12.22 1 18 C0.67 18 0.34 18 0 18 C-0.19484938 15.56288386 -0.38115178 13.12562602 -0.5625 10.6875 C-0.64661133 9.65206055 -0.64661133 9.65206055 -0.73242188 8.59570312 C-0.96581505 5.37487726 -1.03224218 3.09672655 0 0 Z " fill="#29D0CA" transform="translate(511,373)"/>
<path d="M0 0 C-0.70077733 3.153498 -1.5841351 6.08961104 -3 9 C-3.99 9.33 -4.98 9.66 -6 10 C-6.66 8.35 -7.32 6.7 -8 5 C-2.25 0 -2.25 0 0 0 Z " fill="#209588" transform="translate(527,395)"/>
<path d="M0 0 C0.33 0 0.66 0 1 0 C1 3.96 1 7.92 1 12 C-0.65 12.33 -2.3 12.66 -4 13 C-3.52511102 11.01980257 -3.04497141 9.04086365 -2.5625 7.0625 C-2.29566406 5.96035156 -2.02882813 4.85820312 -1.75390625 3.72265625 C-1 1 -1 1 0 0 Z " fill="#2EA79B" transform="translate(508,386)"/>
<path d="M0 0 C2.97 0.495 2.97 0.495 6 1 C3.525 5.455 3.525 5.455 1 10 C0.67 10 0.34 10 0 10 C0 8.02 0 6.04 0 4 C-0.66 3.67 -1.32 3.34 -2 3 C-1.34 2.01 -0.68 1.02 0 0 Z " fill="#28DEDA" transform="translate(523,379)"/>
<path d="M0 0 C0.375 2.6875 0.375 2.6875 0 6 C-1.823983 8.06398076 -3.72763839 9.39041053 -6 11 C-5.38857603 3.54062751 -5.38857603 3.54062751 -3.5625 1 C-2 0 -2 0 0 0 Z " fill="#24BCB4" transform="translate(531,391)"/>
<path d="M0 0 C0.66 0 1.32 0 2 0 C2 2.31 2 4.62 2 7 C0.35 7.33 -1.3 7.66 -3 8 C-3.33 7.34 -3.66 6.68 -4 6 C-2.7260411 3.96166576 -1.38938077 1.96147874 0 0 Z " fill="#25A094" transform="translate(516,391)"/>
<path d="M0 0 C1.65 0 3.3 0 5 0 C5.125 5.75 5.125 5.75 4 8 C3.34 8 2.68 8 2 8 C0.23537317 4.91190305 0 3.76687864 0 0 Z " fill="#38AA9F" transform="translate(353,653)"/>
<path d="M0 0 C1.65 0 3.3 0 5 0 C4.67 2.31 4.34 4.62 4 7 C3.34 7 2.68 7 2 7 C2 6.01 2 5.02 2 4 C1.34 4 0.68 4 0 4 C0 2.68 0 1.36 0 0 Z " fill="#28D0CA" transform="translate(562,653)"/>
<path d="M0 0 C1.2077558 3.62326739 0.54311128 4.64146369 -1 8 C-1.99 8 -2.98 8 -4 8 C-4.99 8.495 -4.99 8.495 -6 9 C-4.47291037 5.56404834 -2.40072955 2.88087546 0 0 Z " fill="#E4F5F4" transform="translate(488,441)"/>
<path d="M0 0 C1.32 0.33 2.64 0.66 4 1 C3.01 3.97 2.02 6.94 1 10 C0.67 10 0.34 10 0 10 C0 6.7 0 3.4 0 0 Z " fill="#24E3E0" transform="translate(513,374)"/>
<path d="M0 0 C1.65 0 3.3 0 5 0 C5 1.32 5 2.64 5 4 C3.35 4 1.7 4 0 4 C0 2.68 0 1.36 0 0 Z " fill="#2BFEFE" transform="translate(775,653)"/>
<path d="M0 0 C0.66 0 1.32 0 2 0 C2.66 1.98 3.32 3.96 4 6 C3.34 6 2.68 6 2 6 C1.67 6.99 1.34 7.98 1 9 C0.67 6.03 0.34 3.06 0 0 Z " fill="#C3EFED" transform="translate(506,443)"/>
<path d="M0 0 C0.66 0 1.32 0 2 0 C1.30058404 3.14737182 0.23921302 6.02588876 -1 9 C-2.25541557 5.23375329 -1.37061958 3.62811066 0 0 Z " fill="#21A89D" transform="translate(525,395)"/>
<path d="M0 0 C0.66 0.99 1.32 1.98 2 3 C2.99 3.66 3.98 4.32 5 5 C2.525 6.485 2.525 6.485 0 8 C-1.125 2.25 -1.125 2.25 0 0 Z " fill="#2BE5E2" transform="translate(534,385)"/>
<path d="M0 0 C0.66 0 1.32 0 2 0 C2.125 3.375 2.125 3.375 2 7 C1.34 7.66 0.68 8.32 0 9 C-0.87890625 2.84765625 -0.87890625 2.84765625 -1 1 C-0.67 0.67 -0.34 0.34 0 0 Z " fill="#1FC9C1" transform="translate(521,383)"/>
</svg>
