
        <svg xmlns="http://www.w3.org/2000/svg" xmlns:xlink="http://www.w3.org/1999/xlink" version="1.1" width="3171.4285714285716" height="1549.4231572677827" viewBox="0 0 3171.4285714285716 1549.4231572677827">
			
			<g transform="scale(8.571428571428573) translate(10, 10)">
				<defs id="SvgjsDefs19252"><linearGradient id="SvgjsLinearGradient19259"><stop id="SvgjsStop19260" stop-color="#147d6c" offset="0"/><stop id="SvgjsStop19261" stop-color="#1effff" offset="1"/></linearGradient><linearGradient id="SvgjsLinearGradient19262"><stop id="SvgjsStop19263" stop-color="#147d6c" offset="0"/><stop id="SvgjsStop19264" stop-color="#1effff" offset="1"/></linearGradient></defs><g id="SvgjsG19253" featureKey="symbolFeature-0" transform="matrix(1.495719268485971,0,0,1.495719268485971,108.00064982758451,0)" fill="#fff"><path xmlns="http://www.w3.org/2000/svg" d="M1.227,20.113c-0.294,0-0.586-0.123-0.793-0.363c-0.378-0.438-0.33-1.1,0.108-1.479C4.075,15.221,22.823,0,44.999,0  c22.173,0,40.924,15.221,44.458,18.272c0.438,0.378,0.487,1.041,0.108,1.479c-0.379,0.438-1.041,0.487-1.479,0.108  C84.651,16.893,66.431,2.096,44.999,2.096c-21.434,0-39.653,14.797-43.088,17.763C1.713,20.029,1.47,20.113,1.227,20.113z"/><path xmlns="http://www.w3.org/2000/svg" d="M51.952,22.146l5.891-5.53c0.338-0.317,0.354-0.847,0.037-1.185c-0.317-0.337-0.847-0.354-1.185-0.038l-5.696,5.347  C51.406,21.136,51.732,21.613,51.952,22.146z"/><path xmlns="http://www.w3.org/2000/svg" d="M54.435,13.563c0.24-0.396,0.114-0.912-0.282-1.151c-0.396-0.24-0.912-0.114-1.151,0.283l-4.197,6.927  c0.576,0.1,1.112,0.314,1.582,0.625L54.435,13.563z"/><path xmlns="http://www.w3.org/2000/svg" d="M48.094,19.557l2.239-8.017c0.125-0.446-0.136-0.909-0.582-1.033c-0.445-0.125-0.908,0.136-1.033,0.582l-2.488,8.91  c0.561-0.28,1.191-0.441,1.86-0.441C48.092,19.557,48.093,19.557,48.094,19.557z"/><path xmlns="http://www.w3.org/2000/svg" d="M44.999,9.287c-10.055,0-18.236,8.181-18.236,18.236c0,10.055,8.181,18.235,18.236,18.235  c10.055,0,18.235-8.18,18.235-18.235C63.234,17.467,55.054,9.287,44.999,9.287z M60.881,32.173l-8.728-3.043  c0.022-0.103,0.042-0.206,0.061-0.31l9.229,0.584C61.334,30.354,61.144,31.278,60.881,32.173z M59.034,36.267l-7.574-5.27  c0.05-0.093,0.091-0.19,0.137-0.285l8.732,3.045C59.971,34.635,59.532,35.471,59.034,36.267z M52.316,27.146  c-0.005-0.105-0.006-0.211-0.016-0.315l9.031-1.917c0.136,0.852,0.226,1.719,0.226,2.609c0,0.07-0.01,0.137-0.01,0.207  L52.316,27.146z M59.249,19.131l-7.084,3.702c0.064,0.29,0.1,0.59,0.1,0.899c0,0.348-0.047,0.684-0.127,1.006l7.891-4.123  c0.392,0.85,0.71,1.738,0.956,2.658l-8.982,1.906c-0.589,1.591-2.116,2.728-3.912,2.728c-2.306,0-4.174-1.869-4.174-4.174  c0-1.476,0.767-2.769,1.921-3.511v-9.214C51.55,11.294,56.5,14.48,59.249,19.131z M52.475,42.277l-3.752-8.442  c0.09-0.054,0.182-0.106,0.27-0.164l5.878,7.114C54.118,41.347,53.319,41.848,52.475,42.277z M46.887,34.604  c0.102-0.027,0.207-0.049,0.307-0.08l3.75,8.436c-0.873,0.337-1.774,0.614-2.71,0.8L46.887,34.604z M35.385,40.978l5.743-7.232  c0.089,0.056,0.178,0.112,0.27,0.165l-3.584,8.508C36.961,42.005,36.149,41.525,35.385,40.978z M39.445,11.942l2.655,8.841  c-0.097,0.042-0.19,0.092-0.285,0.137l-4.941-7.81C37.689,12.649,38.551,12.262,39.445,11.942z M42.943,34.561  c0.101,0.029,0.204,0.054,0.306,0.079l-1.165,9.168c-0.939-0.168-1.848-0.418-2.726-0.738L42.943,34.561z M41.051,11.459  c1.004-0.247,2.043-0.399,3.11-0.453v9.231c-0.153,0.018-0.303,0.042-0.454,0.069L41.051,11.459z M35.459,14.011l4.936,7.803  c-0.082,0.066-0.16,0.137-0.239,0.207l-6.864-6.198C33.958,15.157,34.688,14.557,35.459,14.011z M29.789,34.056l8.672-3.215  c0.048,0.094,0.096,0.188,0.148,0.28l-7.478,5.422C30.618,35.756,30.165,34.927,29.789,34.056z M28.604,29.722l9.201-0.762  c0.021,0.104,0.05,0.205,0.075,0.307l-8.678,3.217C28.922,31.595,28.73,30.668,28.604,29.722z M28.44,27.522  c0-0.779,0.073-1.54,0.178-2.291l9.072,1.741c-0.008,0.104-0.013,0.209-0.016,0.315l-9.207,0.763  C28.461,27.874,28.44,27.701,28.44,27.522z M29.83,20.905l8.277,4.122c-0.036,0.1-0.077,0.197-0.109,0.298l-9.065-1.74  C29.16,22.66,29.455,21.762,29.83,20.905z M30.582,19.406c0.466-0.824,0.994-1.607,1.589-2.336l6.861,6.195  c-0.061,0.086-0.122,0.171-0.18,0.26L30.582,19.406z M32.115,37.9l7.482-5.426c0.072,0.078,0.139,0.16,0.213,0.234l-5.736,7.224  C33.367,39.31,32.708,38.635,32.115,37.9z M43.748,44.018l1.165-9.164c0.029,0,0.058,0.004,0.087,0.004  c0.077,0,0.152-0.009,0.229-0.012l1.345,9.155c-0.519,0.049-1.043,0.08-1.574,0.08C44.577,44.081,44.162,44.049,43.748,44.018z   M56.163,39.716l-5.878-7.114c0.073-0.076,0.143-0.155,0.212-0.234l7.58,5.273C57.498,38.388,56.857,39.08,56.163,39.716z"/><path xmlns="http://www.w3.org/2000/svg" d="M89.682,26.77c-0.84-0.816-20.847-19.99-44.683-19.99c-23.836,0-43.844,19.174-44.684,19.99  c-0.292,0.285-0.391,0.713-0.256,1.098s0.482,0.657,0.888,0.698c0.024,0.002,2.394,0.258,4.976,2.294l0.384,0.303  c7.574,5.977,21.672,17.102,38.692,17.102c23.835,0,43.843-19.175,44.683-19.991C89.885,28.076,90,27.805,90,27.522  S89.885,26.968,89.682,26.77z M3.205,26.983c0.653-0.569,1.525-1.303,2.581-2.144c1.031,0.754,1.755,1.859,1.979,3.127  c0.099,0.557,0.09,1.122-0.001,1.674C7.711,29.6,4.306,27.37,3.205,26.983z M44.999,46.169c-15.177,0-27.734-9.376-35.397-15.367  c0.307-1.001,0.388-2.063,0.205-3.103c-0.271-1.539-1.08-2.914-2.255-3.909c7.501-5.731,21.58-14.915,37.447-14.915  c20.352,0,38.411,15.073,42.405,18.647C83.413,31.096,65.369,46.169,44.999,46.169z"/></g><g id="SvgjsG19254" featureKey="nameFeature-0" transform="matrix(2.6455025844789626,0,0,2.6455025844789626,-1.4285714523849669,71.735446822141)" fill="#fff"><path d="M0.54 19.7 l0 -2.82 c0.24 0.06 0.54 0.12 0.88 0.16 c0.34 0.06 0.7 0.1 1.08 0.12 s0.76 0.04 1.16 0.06 s0.78 0.04 1.12 0.04 c0.94 0 1.6 -0.06 2 -0.16 c0.38 -0.1 0.58 -0.28 0.58 -0.56 c0 -0.24 -0.18 -0.42 -0.36 -0.56 c-0.66 -0.44 -1.44 -0.62 -2.22 -0.8 c-2.2 -0.44 -4.22 -1.32 -4.22 -3.84 c0 -2.98 2.82 -3.68 5.24 -3.68 c1.34 0 2.7 0.14 4 0.46 l0 2.82 c-0.2 -0.06 -0.46 -0.1 -0.78 -0.16 c-0.34 -0.04 -0.68 -0.08 -1.06 -0.12 c-0.78 -0.08 -1.52 -0.12 -2.3 -0.12 c-0.44 0 -1.36 0 -1.78 0.16 c-0.28 0.1 -0.46 0.22 -0.46 0.54 c0 0.16 0.04 0.3 0.12 0.42 c0.08 0.14 0.22 0.24 0.4 0.34 c0.54 0.3 1.24 0.48 1.84 0.62 c0.5 0.12 1 0.26 1.52 0.4 c1.76 0.48 2.92 1.46 2.92 3.34 c0 3.1 -3.08 3.76 -5.56 3.76 c-1.36 0 -2.78 -0.1 -4.12 -0.42 z M17.759999999999998 17.32 c2.18 0 3.3 -1.4 3.3 -3.44 c0 -2.16 -1.2 -3.44 -3.3 -3.44 c-2.2 0 -3.3 1.4 -3.3 3.44 c0 2.12 1.22 3.44 3.3 3.44 z M17.759999999999998 20.1 c-3.76 0 -6.3 -2.56 -6.3 -6.22 c0 -3.78 2.66 -6.22 6.3 -6.22 c3.78 0 6.3 2.54 6.3 6.22 c0 3.8 -2.64 6.22 -6.3 6.22 z M33.36 7.76 l3 0 l0 7.24 c0 3.18 -2.28 5.1 -5.3 5.1 c-3.1 0 -5.3 -2.04 -5.3 -5.1 l0 -7.24 l3 0 l0 7.24 c0 1.44 0.86 2.32 2.3 2.32 c1.48 0 2.3 -0.86 2.3 -2.32 l0 -7.24 z M47.56 17.22 l0 2.78 l-9.1 0 l0 -12.24 l3 0 l0 9.46 l6.1 0 z M52.879999999999995 19.7 l0 -2.82 c0.24 0.06 0.54 0.12 0.88 0.16 c0.34 0.06 0.7 0.1 1.08 0.12 s0.76 0.04 1.16 0.06 s0.78 0.04 1.12 0.04 c0.94 0 1.6 -0.06 2 -0.16 c0.38 -0.1 0.58 -0.28 0.58 -0.56 c0 -0.24 -0.18 -0.42 -0.36 -0.56 c-0.66 -0.44 -1.44 -0.62 -2.22 -0.8 c-2.2 -0.44 -4.22 -1.32 -4.22 -3.84 c0 -2.98 2.82 -3.68 5.24 -3.68 c1.34 0 2.7 0.14 4 0.46 l0 2.82 c-0.2 -0.06 -0.46 -0.1 -0.78 -0.16 c-0.34 -0.04 -0.68 -0.08 -1.06 -0.12 c-0.78 -0.08 -1.52 -0.12 -2.3 -0.12 c-0.44 0 -1.36 0 -1.78 0.16 c-0.28 0.1 -0.46 0.22 -0.46 0.54 c0 0.16 0.04 0.3 0.12 0.42 c0.08 0.14 0.22 0.24 0.4 0.34 c0.54 0.3 1.24 0.48 1.84 0.62 c0.5 0.12 1 0.26 1.52 0.4 c1.76 0.48 2.92 1.46 2.92 3.34 c0 3.1 -3.08 3.76 -5.56 3.76 c-1.36 0 -2.78 -0.1 -4.12 -0.42 z M70.1 17.32 c2.18 0 3.3 -1.4 3.3 -3.44 c0 -2.16 -1.2 -3.44 -3.3 -3.44 c-2.2 0 -3.3 1.4 -3.3 3.44 c0 2.12 1.22 3.44 3.3 3.44 z M70.1 20.1 c-3.76 0 -6.3 -2.56 -6.3 -6.22 c0 -3.78 2.66 -6.22 6.3 -6.22 c3.78 0 6.3 2.54 6.3 6.22 c0 3.8 -2.64 6.22 -6.3 6.22 z M87.36 17.22 l0 2.78 l-9.1 0 l0 -12.24 l3 0 l0 9.46 l6.1 0 z M88.86000000000001 7.76 l3 0 l0 12.24 l-3 0 l0 -12.24 z M98.42 20 l-4.3 0 l0 -12.24 l4.3 0 c3.74 0 6.3 2.44 6.3 6.12 c0 3.78 -2.7 6.12 -6.3 6.12 z M97.12 10.54 l0 6.68 l1.3 0 c2.12 0 3.3 -1.34 3.3 -3.34 c0 -0.46 -0.06 -0.88 -0.18 -1.3 c-0.52 -1.46 -1.66 -2.04 -3.12 -2.04 l-1.3 0 z M106.56 7.76 l3 0 l0 12.24 l-3 0 l0 -12.24 z M111.03999999999999 7.76 l10.2 0 l0 2.78 l-3.6 0 l0 9.46 l-3 0 l0 -9.46 l-3.6 0 l0 -2.78 z M126.06 20 l0 -4.54 c-2.42 -0.54 -3.82 -2.54 -3.82 -4.94 l0 -2.76 l3 0 l0 2.76 c0 1.44 0.86 2.32 2.3 2.32 c1.48 0 2.3 -0.86 2.3 -2.32 l0 -2.76 l3 0 l0 2.76 c0 2.44 -1.42 4.38 -3.78 4.94 l0 4.54 l-3 0 z"/></g><g id="SvgjsG19255" featureKey="sloganFeature-0" transform="matrix(0.8494630306042372,0,0,0.8494630306042372,33.64085902951656,142.1967720395116)" fill="#fff"><path d="M15.44 8.62 c0 1.24 -0.32 2.22 -1 2.9 c0.72 0.66 1.1 1.66 1.1 2.98 l0 1.34 c0 0.62 -0.06 1.2 -0.16 1.7 c-0.12 0.52 -0.28 0.96 -0.54 1.32 c-0.24 0.38 -0.58 0.66 -1 0.86 c-0.4 0.2 -0.9 0.3 -1.5 0.3 l-9 0 c-0.62 0 -1.2 -0.32 -1.52 -0.86 c-0.1 -0.18 -0.18 -0.4 -0.22 -0.62 l0.02 -13.66 c0.04 -0.16 0.12 -0.34 0.2 -0.5 c0.3 -0.48 0.8 -0.8 1.38 -0.84 l0 -0.02 l8.84 0 c1.22 0 2.1 0.34 2.62 1.02 c0.52 0.66 0.78 1.66 0.78 2.96 l0 1.12 z M4.54 16.94 c0 0.08 0.02 0.1 0.02 0.1 l6.96 0 c0.4 0 0.68 -0.08 0.84 -0.26 s0.24 -0.5 0.24 -0.96 l0 -1.36 c0 -0.44 -0.1 -0.76 -0.26 -0.96 c-0.18 -0.2 -0.52 -0.32 -1.04 -0.32 l-3.88 0 c-0.36 0 -0.66 -0.28 -0.66 -0.66 l0 -1.64 c0 -0.36 0.3 -0.66 0.66 -0.66 l3.88 0 c0.52 0 0.86 -0.1 1.02 -0.28 c0.18 -0.2 0.26 -0.5 0.26 -0.88 l0 -1.38 c0 -0.42 -0.08 -0.74 -0.24 -0.92 s-0.44 -0.28 -0.82 -0.28 l-6.94 0 c-0.02 0 -0.04 0.04 -0.04 0.12 l0 10.34 z M33.56 3.5199999999999996 c0.18 0 0.56 0.06 0.56 0.68 l0 9.54 c0 1.12 -0.08 2.08 -0.26 2.86 c-0.18 0.8 -0.46 1.46 -0.86 1.96 c-0.4 0.52 -0.92 0.88 -1.56 1.12 c-0.62 0.22 -1.38 0.32 -2.26 0.32 l-4.5 0 c-0.88 0 -1.64 -0.1 -2.26 -0.32 c-0.62 -0.24 -1.16 -0.6 -1.54 -1.12 c-0.4 -0.5 -0.7 -1.16 -0.88 -1.96 c-0.18 -0.78 -0.26 -1.74 -0.26 -2.86 l0 -9.54 c0 -0.62 0.4 -0.68 0.58 -0.68 l1.82 0 c0.18 0 0.56 0.06 0.56 0.68 l0 9.86 c0 0.6 0.04 1.12 0.1 1.5 c0.08 0.38 0.2 0.68 0.34 0.9 c0.16 0.2 0.34 0.34 0.6 0.44 c0.26 0.08 0.62 0.14 1.04 0.14 l4.32 0 c0.42 0 0.78 -0.06 1.04 -0.14 c0.26 -0.1 0.44 -0.24 0.6 -0.44 c0.14 -0.22 0.26 -0.52 0.32 -0.9 s0.1 -0.9 0.1 -1.5 l0 -9.86 c0 -0.62 0.38 -0.68 0.56 -0.68 l1.84 0 z M40.72 3.5199999999999996 c0.16 0 0.56 0.08 0.56 0.7 l0 15.1 c0 0.62 -0.4 0.7 -0.56 0.7 l-1.84 0 c-0.16 0 -0.56 -0.08 -0.56 -0.7 l0 -15.1 c0 -0.62 0.4 -0.7 0.56 -0.7 l1.84 0 z M57.019999999999996 17.04 c0.18 0 0.56 0.08 0.56 0.7 l0 1.58 c0 0.62 -0.38 0.7 -0.56 0.7 l-6.6 0 c-0.88 0 -1.64 -0.12 -2.24 -0.34 c-0.64 -0.22 -1.16 -0.6 -1.56 -1.12 c-0.4 -0.5 -0.68 -1.16 -0.86 -1.96 c-0.18 -0.78 -0.28 -1.74 -0.28 -2.86 l0 -9.52 c0 -0.64 0.4 -0.7 0.58 -0.7 l1.84 0 c0.16 0 0.56 0.06 0.56 0.7 l0 9.86 c0 0.6 0.02 1.1 0.1 1.5 c0.06 0.36 0.18 0.66 0.34 0.88 c0.14 0.22 0.34 0.36 0.58 0.44 c0.28 0.1 0.62 0.14 1.04 0.14 l6.5 0 z M75.44 7.24 c0.2 0.84 0.3 1.84 0.3 2.96 l0 3.14 c0 1.12 -0.1 2.12 -0.3 2.96 s-0.54 1.54 -0.96 2.08 c-0.44 0.56 -1.02 0.98 -1.7 1.24 c-0.66 0.26 -1.48 0.4 -2.42 0.4 l-6.84 0 c-0.62 0 -1.2 -0.32 -1.52 -0.86 c-0.1 -0.18 -0.18 -0.4 -0.22 -0.62 l0.02 -13.66 c0.04 -0.16 0.12 -0.34 0.2 -0.5 c0.3 -0.48 0.8 -0.8 1.38 -0.84 l0 -0.02 l6.98 0 c0.94 0 1.74 0.14 2.42 0.4 s1.26 0.68 1.7 1.22 c0.42 0.56 0.76 1.26 0.96 2.1 z M64.72 16.94 c0 0.08 0.02 0.1 0.02 0.1 l5.56 0 c0.46 0 0.86 -0.04 1.18 -0.16 s0.56 -0.3 0.74 -0.54 c0.2 -0.26 0.34 -0.6 0.42 -1.04 s0.14 -1 0.14 -1.66 l0 -3.74 c0 -0.66 -0.06 -1.22 -0.14 -1.68 c-0.08 -0.42 -0.22 -0.76 -0.42 -1.02 c-0.18 -0.26 -0.42 -0.42 -0.74 -0.54 s-0.72 -0.18 -1.18 -0.18 l-5.54 0 c-0.02 0 -0.04 0.04 -0.04 0.12 l0 10.34 z M82.02 17.12 c0.42 0 0.78 0.34 0.78 0.78 l0 1.3 c0 0.08 -0.02 0.18 -0.06 0.26 l-0.54 2.06 c-0.06 0.2 -0.24 0.34 -0.44 0.34 c-0.26 0 -0.46 -0.2 -0.46 -0.46 l0 -1.42 l-0.58 0 c-0.44 0 -0.78 -0.36 -0.78 -0.78 l0 -1.3 c0 -0.44 0.34 -0.78 0.78 -0.78 l1.3 0 z M107.94 10.16 c1.04 0 1.84 0.38 2.38 1.1 c0.52 0.72 0.78 1.74 0.78 3.04 l0 1.76 c0 1.16 -0.26 2.1 -0.76 2.82 c-0.52 0.74 -1.34 1.12 -2.44 1.12 l-9.02 0 c-0.18 0 -0.58 -0.06 -0.58 -0.68 l0 -1.6 c0 -0.62 0.4 -0.68 0.58 -0.68 l8.54 0 c0.34 0 0.46 -0.14 0.54 -0.26 c0.12 -0.2 0.18 -0.48 0.18 -0.84 l0 -1.72 c0 -0.98 -0.4 -1.1 -0.7 -1.1 l-6 0 c-0.84 0 -1.76 -0.12 -2.38 -0.94 c-0.5 -0.7 -0.78 -1.82 -0.78 -3.2 l0 -1.52 c0 -1.16 0.26 -2.12 0.78 -2.84 c0.52 -0.74 1.32 -1.1 2.42 -1.1 l8.62 0 c0.16 0 0.56 0.06 0.56 0.68 l0 1.6 c0 0.62 -0.4 0.68 -0.56 0.68 l-8.14 0 c-0.34 0 -0.46 0.14 -0.54 0.26 c-0.1 0.2 -0.16 0.48 -0.16 0.84 l0 1.48 c0 0.98 0.38 1.1 0.68 1.1 l6 0 z M127.32 16.42 c0.18 0 0.58 0.06 0.58 0.68 l0 2.2 c0 0.62 -0.4 0.68 -0.58 0.68 l-7.1 0 c-0.88 0 -1.62 -0.1 -2.24 -0.34 c-0.64 -0.22 -1.16 -0.58 -1.56 -1.1 c-0.38 -0.5 -0.68 -1.16 -0.86 -1.96 c-0.14 -0.66 -0.24 -1.46 -0.26 -2.4 l0 -0.1 l0.04 -2.52 c0.04 -0.18 0.12 -0.34 0.22 -0.5 c0.28 -0.5 0.78 -0.8 1.36 -0.84 l10.32 -0.02 c0.16 0 0.56 0.06 0.56 0.68 l0 1.58 c0 0.62 -0.4 0.7 -0.56 0.7 l-8.94 0 c-0.02 0 -0.04 1.44 -0.04 1.44 l0.04 0.34 c0.06 0.38 0.18 0.68 0.34 0.9 c0.16 0.2 0.34 0.34 0.6 0.44 c0.28 0.08 0.62 0.14 1.04 0.14 l7.04 0 z M127.33999999999999 3.4800000000000004 c0.16 0 0.56 0.08 0.56 0.7 l0 1.58 c0 0.62 -0.4 0.7 -0.56 0.7 l-11.5 -0.02 c-0.16 0 -0.54 -0.06 -0.54 -0.68 l0 -1.56 c0 -0.64 0.38 -0.72 0.54 -0.72 l11.5 0 z M144.32 3.5199999999999996 c0.16 0 0.56 0.08 0.56 0.7 l0 1.54 c0 0.64 -0.4 0.72 -0.56 0.72 l-7.18 0 c-0.42 0 -0.78 0.04 -1.04 0.14 c-0.26 0.08 -0.44 0.22 -0.6 0.44 s-0.26 0.5 -0.34 0.88 c-0.06 0.38 -0.1 0.88 -0.1 1.48 l0 4.66 c0 0.6 0.04 1.1 0.1 1.5 c0.08 0.38 0.18 0.68 0.34 0.88 c0.16 0.22 0.34 0.36 0.6 0.44 c0.26 0.1 0.62 0.14 1.04 0.14 l7.18 0 c0.16 0 0.56 0.08 0.56 0.7 l0 1.58 c0 0.62 -0.4 0.7 -0.56 0.7 l-7.28 0 c-0.88 0 -1.64 -0.12 -2.26 -0.34 s-1.14 -0.6 -1.54 -1.1 c-0.4 -0.52 -0.7 -1.18 -0.88 -1.96 c-0.18 -0.8 -0.26 -1.76 -0.26 -2.88 l0 -3.96 c0 -1.1 0.08 -2.06 0.26 -2.84 c0.18 -0.8 0.48 -1.46 0.88 -1.96 c0.38 -0.5 0.9 -0.88 1.54 -1.12 c0.62 -0.22 1.38 -0.34 2.26 -0.34 l7.28 0 z M162.89999999999998 3.5199999999999996 c0.18 0 0.56 0.06 0.56 0.68 l0 9.54 c0 1.12 -0.08 2.08 -0.26 2.86 c-0.18 0.8 -0.46 1.46 -0.86 1.96 c-0.4 0.52 -0.92 0.88 -1.56 1.12 c-0.62 0.22 -1.38 0.32 -2.26 0.32 l-4.5 0 c-0.88 0 -1.64 -0.1 -2.26 -0.32 c-0.62 -0.24 -1.16 -0.6 -1.54 -1.12 c-0.4 -0.5 -0.7 -1.16 -0.88 -1.96 c-0.18 -0.78 -0.26 -1.74 -0.26 -2.86 l0 -9.54 c0 -0.62 0.4 -0.68 0.58 -0.68 l1.82 0 c0.18 0 0.56 0.06 0.56 0.68 l0 9.86 c0 0.6 0.04 1.12 0.1 1.5 c0.08 0.38 0.2 0.68 0.34 0.9 c0.16 0.2 0.34 0.34 0.6 0.44 c0.26 0.08 0.62 0.14 1.04 0.14 l4.32 0 c0.42 0 0.78 -0.06 1.04 -0.14 c0.26 -0.1 0.44 -0.24 0.6 -0.44 c0.14 -0.22 0.26 -0.52 0.32 -0.9 s0.1 -0.9 0.1 -1.5 l0 -9.86 c0 -0.62 0.38 -0.68 0.56 -0.68 l1.84 0 z M181.68 19.14 c0.08 0.12 0.1 0.28 0.08 0.48 c-0.04 0.24 -0.22 0.4 -0.46 0.4 l-2.2 0 c-0.18 0 -0.32 -0.04 -0.42 -0.12 c-0.08 -0.06 -0.14 -0.16 -0.22 -0.28 l-3.62 -6.42 l-4.22 0 l0 6.12 c0 0.62 -0.38 0.7 -0.56 0.7 l-1.82 0 c-0.18 0 -0.58 -0.08 -0.58 -0.7 l0 -8.4 c0 -0.62 0.4 -0.68 0.58 -0.68 l8.7 0 c0.52 0 0.86 -0.14 1.06 -0.44 c0.22 -0.3 0.32 -0.78 0.32 -1.44 s-0.1 -1.14 -0.32 -1.44 c-0.2 -0.3 -0.54 -0.44 -1.06 -0.44 l-8.7 0 c-0.18 0 -0.58 -0.06 -0.58 -0.68 l0 -1.58 c0 -0.64 0.4 -0.7 0.58 -0.7 l9.22 0 c1.36 0 2.36 0.42 2.96 1.28 c0.54 0.82 0.84 1.98 0.88 3.5 l0 0.12 c-0.04 1.54 -0.34 2.7 -0.88 3.5 c-0.5 0.68 -1.26 1.1 -2.24 1.22 z M198 16.42 c0.18 0 0.58 0.06 0.58 0.68 l0 2.2 c0 0.62 -0.4 0.68 -0.58 0.68 l-7.1 0 c-0.88 0 -1.62 -0.1 -2.24 -0.34 c-0.64 -0.22 -1.16 -0.58 -1.56 -1.1 c-0.38 -0.5 -0.68 -1.16 -0.86 -1.96 c-0.14 -0.66 -0.24 -1.46 -0.26 -2.4 l0 -0.1 l0.04 -2.52 c0.04 -0.18 0.12 -0.34 0.22 -0.5 c0.28 -0.5 0.78 -0.8 1.36 -0.84 l10.32 -0.02 c0.16 0 0.56 0.06 0.56 0.68 l0 1.58 c0 0.62 -0.4 0.7 -0.56 0.7 l-8.94 0 c-0.02 0 -0.04 1.44 -0.04 1.44 l0.04 0.34 c0.06 0.38 0.18 0.68 0.34 0.9 c0.16 0.2 0.34 0.34 0.6 0.44 c0.28 0.08 0.62 0.14 1.04 0.14 l7.04 0 z M198.01999999999998 3.4800000000000004 c0.16 0 0.56 0.08 0.56 0.7 l0 1.58 c0 0.62 -0.4 0.7 -0.56 0.7 l-11.5 -0.02 c-0.16 0 -0.54 -0.06 -0.54 -0.68 l0 -1.56 c0 -0.64 0.38 -0.72 0.54 -0.72 l11.5 0 z M204.86 17.12 c0.42 0 0.78 0.34 0.78 0.78 l0 1.3 c0 0.08 -0.02 0.18 -0.06 0.26 l-0.54 2.06 c-0.06 0.2 -0.24 0.34 -0.44 0.34 c-0.26 0 -0.46 -0.2 -0.46 -0.46 l0 -1.42 l-0.58 0 c-0.44 0 -0.78 -0.36 -0.78 -0.78 l0 -1.3 c0 -0.44 0.34 -0.78 0.78 -0.78 l1.3 0 z M233.14000000000001 16.42 c0.18 0 0.58 0.06 0.58 0.68 l0 2.2 c0 0.62 -0.4 0.68 -0.58 0.68 l-7.1 0 c-0.88 0 -1.62 -0.1 -2.24 -0.34 c-0.64 -0.22 -1.16 -0.58 -1.56 -1.1 c-0.38 -0.5 -0.68 -1.16 -0.86 -1.96 c-0.14 -0.66 -0.24 -1.46 -0.26 -2.4 l0 -0.1 l0.04 -2.52 c0.04 -0.18 0.12 -0.34 0.22 -0.5 c0.28 -0.5 0.78 -0.8 1.36 -0.84 l10.32 -0.02 c0.16 0 0.56 0.06 0.56 0.68 l0 1.58 c0 0.62 -0.4 0.7 -0.56 0.7 l-8.94 0 c-0.02 0 -0.04 1.44 -0.04 1.44 l0.04 0.34 c0.06 0.38 0.18 0.68 0.34 0.9 c0.16 0.2 0.34 0.34 0.6 0.44 c0.28 0.08 0.62 0.14 1.04 0.14 l7.04 0 z M233.16000000000003 3.4800000000000004 c0.16 0 0.56 0.08 0.56 0.7 l0 1.58 c0 0.62 -0.4 0.7 -0.56 0.7 l-11.5 -0.02 c-0.16 0 -0.54 -0.06 -0.54 -0.68 l0 -1.56 c0 -0.64 0.38 -0.72 0.54 -0.72 l11.5 0 z M253.86 3.3000000000000007 c0.3 0 0.4 0.18 0.44 0.28 c0.04 0.14 0.02 0.3 -0.06 0.5 l-5.56 13.84 c-0.3 0.72 -0.58 1.2 -0.88 1.46 c-0.08 0.08 -0.18 0.14 -0.3 0.2 c-0.4 0.28 -0.88 0.44 -1.38 0.44 c-1.1 0 -2.08 -0.74 -2.38 -1.8 l-0.14 -0.3 l-5.6 -13.84 c-0.08 -0.2 -0.1 -0.36 -0.06 -0.5 c0.02 -0.08 0.12 -0.28 0.42 -0.28 l2.16 0 c0.28 0 0.48 0.14 0.56 0.42 l4.98 12.38 c0.02 0.04 0.02 0.06 0.02 0.06 l0.08 -0.02 s0.02 0 0.02 -0.04 l4.9 -12.38 c0.12 -0.28 0.32 -0.42 0.58 -0.42 l2.2 0 z M272.14000000000004 4.98 c0.4 0.5 0.68 1.16 0.86 1.96 c0.16 0.78 0.26 1.74 0.26 2.84 l0 3.96 c0 1.12 -0.1 2.08 -0.26 2.86 c-0.18 0.8 -0.46 1.46 -0.86 1.98 c-0.4 0.5 -0.92 0.88 -1.56 1.1 c-0.62 0.22 -1.38 0.34 -2.26 0.34 l-4.88 0 c-0.88 0 -1.64 -0.12 -2.24 -0.34 c-0.64 -0.22 -1.16 -0.6 -1.56 -1.12 c-0.38 -0.5 -0.68 -1.16 -0.86 -1.96 c-0.18 -0.78 -0.26 -1.74 -0.26 -2.86 l0 -3.96 c0 -1.12 0.08 -2.06 0.26 -2.84 c0.18 -0.8 0.48 -1.46 0.86 -1.96 c0.4 -0.5 0.92 -0.88 1.56 -1.12 c0.62 -0.22 1.36 -0.34 2.24 -0.34 l4.88 0 c0.88 0 1.64 0.12 2.26 0.34 c0.64 0.24 1.16 0.62 1.56 1.12 z M270.28000000000003 9.44 c0 -0.58 -0.02 -1.08 -0.1 -1.48 c-0.06 -0.38 -0.18 -0.68 -0.34 -0.9 c-0.14 -0.2 -0.34 -0.34 -0.6 -0.44 c-0.26 -0.08 -0.6 -0.14 -1.02 -0.14 l-4.68 0 c-0.42 0 -0.76 0.06 -1.02 0.14 c-0.26 0.1 -0.46 0.24 -0.6 0.44 c-0.16 0.22 -0.26 0.52 -0.34 0.9 c-0.06 0.4 -0.1 0.9 -0.1 1.48 l0 4.66 c0 0.58 0.04 1.08 0.1 1.48 c0.08 0.36 0.18 0.68 0.34 0.88 c0.14 0.22 0.34 0.36 0.6 0.44 c0.26 0.1 0.6 0.14 1.02 0.14 l4.68 0 c0.42 0 0.76 -0.04 1.02 -0.14 c0.26 -0.08 0.46 -0.22 0.6 -0.44 c0.16 -0.2 0.28 -0.52 0.34 -0.88 c0.08 -0.4 0.1 -0.9 0.1 -1.48 l0 -4.66 z M289 17.04 c0.18 0 0.56 0.08 0.56 0.7 l0 1.58 c0 0.62 -0.38 0.7 -0.56 0.7 l-6.6 0 c-0.88 0 -1.64 -0.12 -2.24 -0.34 c-0.64 -0.22 -1.16 -0.6 -1.56 -1.12 c-0.4 -0.5 -0.68 -1.16 -0.86 -1.96 c-0.18 -0.78 -0.28 -1.74 -0.28 -2.86 l0 -9.52 c0 -0.64 0.4 -0.7 0.58 -0.7 l1.84 0 c0.16 0 0.56 0.06 0.56 0.7 l0 9.86 c0 0.6 0.02 1.1 0.1 1.5 c0.06 0.36 0.18 0.66 0.34 0.88 c0.14 0.22 0.34 0.36 0.58 0.44 c0.28 0.1 0.62 0.14 1.04 0.14 l6.5 0 z M306.90000000000003 3.3000000000000007 c0.3 0 0.4 0.18 0.44 0.28 c0.04 0.14 0.02 0.3 -0.06 0.5 l-5.56 13.84 c-0.3 0.72 -0.58 1.2 -0.88 1.46 c-0.08 0.08 -0.18 0.14 -0.3 0.2 c-0.4 0.28 -0.88 0.44 -1.38 0.44 c-1.1 0 -2.08 -0.74 -2.38 -1.8 l-0.14 -0.3 l-5.6 -13.84 c-0.08 -0.2 -0.1 -0.36 -0.06 -0.5 c0.02 -0.08 0.12 -0.28 0.42 -0.28 l2.16 0 c0.28 0 0.48 0.14 0.56 0.42 l4.98 12.38 c0.02 0.04 0.02 0.06 0.02 0.06 l0.08 -0.02 s0.02 0 0.02 -0.04 l4.9 -12.38 c0.12 -0.28 0.32 -0.42 0.58 -0.42 l2.2 0 z M323.58000000000004 16.42 c0.18 0 0.58 0.06 0.58 0.68 l0 2.2 c0 0.62 -0.4 0.68 -0.58 0.68 l-7.1 0 c-0.88 0 -1.62 -0.1 -2.24 -0.34 c-0.64 -0.22 -1.16 -0.58 -1.56 -1.1 c-0.38 -0.5 -0.68 -1.16 -0.86 -1.96 c-0.14 -0.66 -0.24 -1.46 -0.26 -2.4 l0 -0.1 l0.04 -2.52 c0.04 -0.18 0.12 -0.34 0.22 -0.5 c0.28 -0.5 0.78 -0.8 1.36 -0.84 l10.32 -0.02 c0.16 0 0.56 0.06 0.56 0.68 l0 1.58 c0 0.62 -0.4 0.7 -0.56 0.7 l-8.94 0 c-0.02 0 -0.04 1.44 -0.04 1.44 l0.04 0.34 c0.06 0.38 0.18 0.68 0.34 0.9 c0.16 0.2 0.34 0.34 0.6 0.44 c0.28 0.08 0.62 0.14 1.04 0.14 l7.04 0 z M323.6 3.4800000000000004 c0.16 0 0.56 0.08 0.56 0.7 l0 1.58 c0 0.62 -0.4 0.7 -0.56 0.7 l-11.5 -0.02 c-0.16 0 -0.54 -0.06 -0.54 -0.68 l0 -1.56 c0 -0.64 0.38 -0.72 0.54 -0.72 l11.5 0 z M330.44000000000005 17.12 c0.42 0 0.78 0.34 0.78 0.78 l0 1.3 c0 0.42 -0.36 0.78 -0.78 0.78 l-1.3 0 c-0.44 0 -0.78 -0.36 -0.78 -0.78 l0 -1.3 c0 -0.44 0.34 -0.78 0.78 -0.78 l1.3 0 z"/></g>
			</g>
		</svg>
	