<svg width="64" height="64" viewBox="0 0 64 64" fill="none" xmlns="http://www.w3.org/2000/svg">
    <!-- Background -->
    <circle cx="32" cy="32" r="32" fill="#1E293B"/>
    <!-- Left Block -->
    <rect x="16" y="24" width="12" height="16" rx="2" fill="#4F46E5" fill-opacity="0.2" stroke="#4F46E5" stroke-width="2"/>
    <!-- Right Block -->
    <rect x="36" y="24" width="12" height="16" rx="2" fill="#06B6D4" fill-opacity="0.2" stroke="#06B6D4" stroke-width="2"/>
    <!-- Chain Links -->
    <path d="M28 32h4a2 2 0 0 0 2-2v0a2 2 0 0 0-2-2h-4a2 2 0 0 0-2 2v0a2 2 0 0 0 2 2z" fill="white" fill-opacity="0.9"/>
    <path d="M32 32h4a2 2 0 0 1 2 2v0a2 2 0 0 1-2 2h-4a2 2 0 0 1-2-2v0a2 2 0 0 1 2-2z" fill="white" fill-opacity="0.9"/>
    <!-- Inner Block Details -->
    <line x1="19" y1="28" x2="25" y2="28" stroke="#4F46E5" stroke-width="1.5" stroke-linecap="round"/>
    <line x1="19" y1="32" x2="25" y2="32" stroke="#4F46E5" stroke-width="1.5" stroke-linecap="round"/>
    <line x1="19" y1="36" x2="25" y2="36" stroke="#4F46E5" stroke-width="1.5" stroke-linecap="round"/>
    <line x1="39" y1="28" x2="45" y2="28" stroke="#06B6D4" stroke-width="1.5" stroke-linecap="round"/>
    <line x1="39" y1="32" x2="45" y2="32" stroke="#06B6D4" stroke-width="1.5" stroke-linecap="round"/>
    <line x1="39" y1="36" x2="45" y2="36" stroke="#06B6D4" stroke-width="1.5" stroke-linecap="round"/>
</svg>